<?xml version="1.0" encoding="UTF-8" standalone="no"?>
<svg xmlns:dc="http://purl.org/dc/elements/1.1/" xmlns:cc="http://creativecommons.org/ns#" xmlns:rdf="http://www.w3.org/1999/02/22-rdf-syntax-ns#" xmlns:svg="http://www.w3.org/2000/svg" xmlns="http://www.w3.org/2000/svg" xmlns:sodipodi="http://sodipodi.sourceforge.net/DTD/sodipodi-0.dtd" xmlns:inkscape="http://www.inkscape.org/namespaces/inkscape" version="1.1" id="svg10" xml:space="preserve" width="800" height="415" viewBox="0 0 800 414.99998" sodipodi:docname="Logo Saint-Maur-des-Fossés.svg" inkscape:version="1.0beta1 (32d4812, 2019-09-19)">
  <metadata id="metadata16">
    <rdf:RDF>
      <cc:Work rdf:about="">
        <dc:format>image/svg+xml</dc:format>

        <dc:type rdf:resource="http://purl.org/dc/dcmitype/StillImage"/>

        <dc:title/>

      </cc:Work>

    </rdf:RDF>

  </metadata>

  <defs id="defs14"/>

  <sodipodi:namedview pagecolor="#ffffff" bordercolor="#666666" inkscape:document-rotation="0" borderopacity="1" objecttolerance="10" gridtolerance="10" guidetolerance="10" inkscape:pageopacity="0" inkscape:pageshadow="2" inkscape:window-width="1440" inkscape:window-height="788" id="namedview12" showgrid="false" inkscape:zoom="0.35" inkscape:cx="-308.53404" inkscape:cy="845.82725" inkscape:window-x="0" inkscape:window-y="23" inkscape:window-maximized="0" inkscape:current-layer="g18"/>

  <g id="g18" inkscape:groupmode="layer" inkscape:label="Logo Saint-Maur-des-Fossés" transform="matrix(1.3333333,0,0,-1.3333333,0,1133.8587)">
    <path inkscape:connector-curvature="0" id="path310" style="opacity:1;fill:#00a33a;fill-opacity:1;fill-rule:nonzero;stroke:none;stroke-width:6.9082;stop-opacity:1" d="m 295.28758,614.49437 6.52134,-2.79782 27.72258,13.98219 c 0,0 43.09333,74.07658 71.04388,107.15301 27.95747,33.07645 98.77338,100.16193 37.27663,-18.63831 l -45.65627,-99.69907 h 32.14384 c 0,0 63.35506,112.74175 105.75757,146.28794 42.39559,33.5462 42.39559,27.95056 21.42921,-22.36182 -20.96637,-50.31239 -32.61358,-69.42046 -36.80686,-80.59791 -4.19327,-11.18438 -35.40451,-69.42047 28.88316,-30.74839 0,0 45.66318,32.6136 52.64735,44.72366 l -4.19327,10.71461 c 0,0 -79.6653,-85.71689 -41.00013,-7.45394 38.67207,78.26985 40.06753,92.71489 40.06753,92.71489 0,0 30.74837,102.48999 -96.90126,-27.48771 0,0 -27.48771,-33.07644 -29.35292,-30.74838 0,0 16.30335,33.53929 21.42922,54.50567 0,0 39.13493,124.38895 -123.45636,-55.90803 0,0 10.71461,23.29443 25.6225,70.81591 0,0 22.36183,75.00918 -83.85858,-43.79105 l 4.19328,-10.71462 c 0,0 115.53956,156.53281 -13.51244,-109.95083"/>

    <g id="g2668" transform="matrix(1.0013,0,0,1.0013,-4.142899e-5,-1.107992)">
      <path d="m 3.7451727,665.85116 c 0.4967443,1.85589 0.8417056,3.91876 1.0348839,6.16791 l 0.213876,0.19318 h 0.883101 l 0.1517829,-0.17248 0.082791,-4.05675 c 1.0417831,-0.82791 2.0421709,-1.35915 2.9873649,-1.59372 0.9520926,-0.23457 1.8489926,-0.34496 2.6975976,-0.34496 2.518217,0 4.408605,0.71752 5.664264,2.15946 1.24876,1.44883 1.87659,3.09085 1.87659,4.93984 0,0.9383 -0.186279,1.74551 -0.572636,2.40783 -0.379458,0.66233 -0.883101,1.15217 -1.504031,1.47644 -0.62783,0.32426 -1.7869,0.67612 -3.47721,1.05558 -1.945582,0.43465 -3.380621,0.8969 -4.3120164,1.37294 -0.9313956,0.48295 -1.6489151,1.19357 -2.1525586,2.14566 -0.5105427,0.9521 -0.7658141,2.11117 -0.7658141,3.47721 0,2.00078 0.5588373,3.77388 1.6696127,5.31241 1.1176747,1.54542 2.5251164,2.72519 4.2292254,3.5462 1.704109,0.82791 3.608295,1.24186 5.70566,1.24186 2.055969,0 3.815272,-0.44155 5.277908,-1.31085 l 0.08279,-0.25527 c -0.338062,-1.37985 -0.648528,-3.21504 -0.945194,-5.51249 l -0.172481,-0.17248 h -0.931395 l -0.165582,0.17248 v 3.10466 c -1.096977,1.29705 -2.732093,1.94558 -4.89845,1.94558 -1.283256,0 -2.442326,-0.27597 -3.47721,-0.81411 -1.034884,-0.54504 -1.842094,-1.33155 -2.421629,-2.36644 -0.5795345,-1.03488 -0.8624028,-2.16635 -0.8624028,-3.39441 0,-1.08318 0.213876,-1.98698 0.6416278,-2.7114 0.427752,-0.73132 1.021086,-1.26256 1.773101,-1.60062 0.752016,-0.33116 2.042171,-0.71062 3.856668,-1.13837 1.490232,-0.33807 2.552713,-0.62093 3.180543,-0.84171 0.627829,-0.22767 1.234961,-0.60023 1.814496,-1.11077 0.586434,-0.51745 1.034884,-1.13148 1.345349,-1.8628 0.310466,-0.72441 0.462248,-1.57302 0.462248,-2.54581 0,-2.02837 -0.614031,-3.84977 -1.848992,-5.47109 -1.228062,-1.62131 -2.711396,-2.91147 -4.436203,-3.87736 -1.724806,-0.96589 -3.787675,-1.44884 -6.181706,-1.44884 -2.290543,0 -4.4362023,0.54504 -6.4231794,1.62822 z" style="opacity:1;fill:#000000;fill-opacity:1;fill-rule:nonzero;stroke:none;stroke-width:6.89923;stop-opacity:1" id="path326" inkscape:connector-curvature="0"/>

      <path d="m 46.197491,682.47899 c -1.06938,0.48985 -2.221551,0.73822 -3.463412,0.73822 -1.027984,0 -1.945581,-0.18628 -2.745891,-0.57264 -0.296667,-0.22077 -0.600233,-0.62093 -0.910698,-1.18667 -0.310466,-0.57263 -0.745117,-1.63511 -1.310853,-3.19434 -0.558838,-1.55922 -1.021086,-3.22194 -1.372946,-4.98814 -0.351861,-1.7662 -0.524341,-3.17364 -0.524341,-4.21542 0,-0.77272 0.06209,-1.26946 0.200077,-1.49714 0.131085,-0.22767 0.331163,-0.33806 0.600233,-0.33806 0.503643,0 1.497132,0.68302 2.980465,2.04907 1.476435,1.36605 2.725195,2.95287 3.74628,4.75357 1.021086,1.8007 1.862791,4.20853 2.525117,7.22349 z m 3.573799,-13.46039 0.144884,-0.57264 -0.08279,-0.24837 c -2.959768,-2.55271 -4.974342,-3.82217 -6.043722,-3.82217 -0.703721,0 -1.055582,0.44845 -1.055582,1.34535 0,0.44155 0.0414,0.99349 0.137985,1.66271 0.08969,0.66923 0.227674,1.40745 0.413954,2.20776 l 0.524341,2.26294 0.317364,1.24186 -0.124186,0.0621 c -2.104264,-2.98047 -4.063644,-5.22272 -5.88504,-6.71295 -1.828295,-1.49713 -3.104652,-2.24225 -3.835969,-2.24225 -0.98659,0 -1.476435,1.20736 -1.476435,3.6083 0,1.51093 0.227675,3.22193 0.683024,5.13992 0.455348,1.91108 1.021085,3.69108 1.683411,5.3262 0.655426,1.62822 1.186667,2.7045 1.593721,3.22194 0.400155,0.51054 1.06938,1.09698 2.007675,1.7593 0.931395,0.66233 1.814496,1.17287 2.628605,1.52473 0.814109,0.35186 1.724806,0.52434 2.725194,0.52434 1.228062,0 2.525117,-0.25527 3.911861,-0.75891 l 1.352249,0.80721 0.462248,-0.38636 c -0.0414,-0.20698 -0.338062,-1.26946 -0.89,-3.16674 l -0.972791,-3.5945 -0.524341,-2.09047 c -0.379458,-1.49023 -0.731318,-3.04945 -1.055582,-4.67767 -0.324264,-1.62822 -0.489845,-2.73899 -0.489845,-3.32543 0,-0.56574 0.193178,-0.8486 0.572636,-0.8486 0.241473,0 0.558837,0.10348 0.952093,0.31736 0.393256,0.21388 1.103876,0.71062 2.131861,1.49713 z" style="opacity:1;fill:#000000;fill-opacity:1;fill-rule:nonzero;stroke:none;stroke-width:6.89923;stop-opacity:1" id="path330" inkscape:connector-curvature="0"/>

      <path d="m 65.048246,692.40835 c 0,0.74512 0.234574,1.40744 0.71062,1.97318 0.469148,0.57263 1.041783,0.8624 1.717908,0.8624 0.482945,0 0.869302,-0.15178 1.165969,-0.44845 0.289767,-0.29666 0.44155,-0.71752 0.44155,-1.26946 0,-0.75891 -0.220775,-1.43503 -0.655426,-2.03527 -0.434651,-0.60023 -0.98659,-0.8969 -1.648915,-0.8969 -0.489845,0 -0.903799,0.16558 -1.234962,0.50365 -0.331163,0.33806 -0.496744,0.77961 -0.496744,1.31085 m -5.512482,-11.79078 -0.213876,0.48985 0.06209,0.27597 c 1.917985,1.37984 3.39442,2.34573 4.429304,2.90457 1.034883,0.55194 1.848992,0.83481 2.442326,0.83481 0.572635,0 0.862403,-0.42086 0.862403,-1.24876 0,-0.37946 -0.07589,-0.9176 -0.220775,-1.61442 -0.144884,-0.69682 -0.503644,-2.10427 -1.06938,-4.21543 -1.531629,-5.69186 -2.297443,-9.05868 -2.297443,-10.10047 0,-0.56573 0.193179,-0.8417 0.586434,-0.8417 0.607132,0 1.704109,0.59333 3.297831,1.7938 l 0.213876,-0.069 0.227674,-0.54504 -0.04139,-0.25528 c -0.98659,-0.75891 -2.000776,-1.49023 -3.042559,-2.19395 -1.041783,-0.70372 -1.7869,-1.15217 -2.22845,-1.34535 -0.441551,-0.18628 -0.814109,-0.28287 -1.110775,-0.28287 -0.420853,0 -0.752016,0.17938 -0.98659,0.54504 -0.241473,0.37256 -0.365659,0.80031 -0.365659,1.29016 0,0.63473 0.08969,1.31775 0.26907,2.04217 0.172481,0.72442 0.386357,1.53163 0.641628,2.41473 0.917597,3.27023 1.566124,5.82294 1.952481,7.65124 0.386357,1.82829 0.586434,2.95287 0.586434,3.35992 0,0.48295 -0.165581,0.71752 -0.489845,0.71752 -0.206977,0 -0.413953,-0.0552 -0.614031,-0.15868 -0.193178,-0.10349 -1.083178,-0.61403 -2.656202,-1.53163 z" style="opacity:1;fill:#000000;fill-opacity:1;fill-rule:nonzero;stroke:none;stroke-width:6.89923;stop-opacity:1" id="path334" inkscape:connector-curvature="0"/>

      <path d="m 78.722512,664.35127 -0.275969,0.35876 c 0.917597,2.80109 1.731706,6.03682 2.442326,9.70031 0.71062,3.66349 1.062481,5.98163 1.062481,6.96822 0,0.55194 -0.186279,0.82791 -0.565737,0.82791 -0.524341,0 -1.607519,-0.55884 -3.256434,-1.66962 l -0.248373,0.0621 -0.193178,0.46914 0.06209,0.31047 c 0.565737,0.42775 1.234962,0.9038 2.021473,1.44194 0.779613,0.53124 1.552326,1.00729 2.311241,1.42124 0.758915,0.42085 1.283256,0.66922 1.573024,0.76581 0.289767,0.0897 0.545039,0.13109 0.772713,0.13109 0.393256,0 0.662326,-0.13109 0.814109,-0.40706 0.144883,-0.27597 0.220775,-0.55883 0.220775,-0.8555 0,-0.63473 -0.234574,-1.89039 -0.696822,-3.76008 -0.137984,-0.52434 -0.524341,-2.06287 -1.145271,-4.62938 l 0.151783,-0.0414 c 1.041783,1.7041 2.325039,3.33922 3.842868,4.89845 1.524729,1.56612 3.097753,2.75969 4.712172,3.5738 1.621318,0.8141 2.807985,1.22116 3.573799,1.22116 0.420853,0 0.738217,-0.12419 0.952093,-0.38636 0.206977,-0.26217 0.310465,-0.60023 0.310465,-1.00729 0,-0.97279 -0.482945,-3.33922 -1.455736,-7.0993 -1.310853,-5.00884 -1.959381,-7.96171 -1.959381,-8.85171 0,-0.51744 0.18628,-0.77961 0.565737,-0.77961 0.462248,0 1.648915,0.67613 3.553101,2.02837 l 0.227675,-0.0621 0.234574,-0.55194 -0.06209,-0.25527 c -0.876202,-0.70372 -1.87659,-1.42124 -3.001164,-2.16636 -1.124574,-0.73821 -1.945582,-1.22116 -2.449225,-1.44193 -0.510543,-0.22768 -0.931396,-0.33807 -1.269458,-0.33807 -0.434651,0 -0.758915,0.15179 -0.958992,0.45535 -0.206977,0.29667 -0.310465,0.67613 -0.310465,1.12458 0,0.49674 0.110387,1.26945 0.338062,2.31814 0.227674,1.04868 0.696822,2.97356 1.414341,5.77465 1.027985,3.96015 1.545427,6.38868 1.545427,7.29248 0,0.74512 -0.26907,1.11768 -0.80721,1.11768 -0.372558,0 -0.821008,-0.11729 -1.324651,-0.35876 -0.903799,-0.42086 -1.87659,-1.11078 -2.918373,-2.05597 -1.041783,-0.9521 -1.993876,-2.06977 -2.863179,-3.33923 -0.869302,-1.27636 -1.545426,-2.54581 -2.028372,-3.80837 -0.482946,-1.25566 -0.910698,-2.6838 -1.276357,-4.27752 -0.05519,-0.20008 -0.275969,-1.34535 -0.655426,-3.44272 -0.972791,-0.15178 -1.96628,-0.37945 -2.980466,-0.67612" style="opacity:1;fill:#000000;fill-opacity:1;fill-rule:nonzero;stroke:none;stroke-width:6.89923;stop-opacity:1" id="path338" inkscape:connector-curvature="0"/>

      <path d="m 118.3634,669.56985 0.23457,-0.48295 -0.0621,-0.25527 c -0.55194,-0.48294 -1.50403,-1.20736 -2.86318,-2.18705 -1.36604,-0.97969 -2.33884,-1.63512 -2.93907,-1.96628 -0.60023,-0.33116 -1.11767,-0.49675 -1.55232,-0.49675 -0.40706,0 -0.73822,0.19318 -0.98659,0.57264 -0.24148,0.37946 -0.36566,0.9176 -0.36566,1.62132 0,0.8348 0.24147,2.31814 0.71752,4.4638 0.55193,2.47682 1.25566,6.00232 2.11116,10.58341 l -3.44271,-0.0828 -0.14489,0.16558 0.0621,0.35876 0.16558,0.17248 c 1.51093,0.53814 2.71829,1.04868 3.63589,1.53853 0.26907,1.24186 0.63473,3.67039 1.09698,7.29248 1.51093,0.63473 2.6148,1.13837 3.31852,1.51783 l 0.50365,-0.37946 -0.82101,-3.22883 c -0.0966,-0.40706 -0.46915,-2.22845 -1.11768,-5.45039 0.63473,-0.0483 1.14528,-0.069 1.53853,-0.069 1.39365,0 2.38024,0.10349 2.95977,0.29667 l 0.21388,-0.16558 -0.48985,-2.06977 c -0.51744,0 -2.05597,0.0345 -4.60178,0.10349 -1.56613,-7.50636 -2.34574,-11.92876 -2.34574,-13.26721 0,-0.64853 0.26907,-0.97279 0.80031,-0.97279 0.26907,0 0.62093,0.11728 1.06938,0.34496 0.44155,0.23457 1.21426,0.75201 2.31124,1.55922 l 0.73822,0.56574 z" style="opacity:1;fill:#000000;fill-opacity:1;fill-rule:nonzero;stroke:none;stroke-width:6.89923;stop-opacity:1" id="path342" inkscape:connector-curvature="0"/>

      <path d="m 128.48939,674.28133 0.89,2.49062 h 11.49411 l -0.89,-2.49062 z" style="opacity:1;fill:#000000;fill-opacity:1;fill-rule:nonzero;stroke:none;stroke-width:6.89923;stop-opacity:1" id="path346" inkscape:connector-curvature="0"/>

      <path d="m 148.07767,664.71003 -0.16558,0.16558 0.0828,0.9107 0.19318,0.16558 c 1.20736,0.13109 1.93178,0.25527 2.17325,0.38636 0.15179,0.069 0.28287,0.16558 0.37946,0.29666 0.26907,0.35186 0.61403,1.17287 1.03489,2.46993 0.90379,2.74589 1.79379,5.69876 2.68379,8.8517 l 2.64241,9.48644 c 0.64852,2.36643 0.97279,3.78078 0.97279,4.24992 0,0.55884 -0.26217,0.99349 -0.77271,1.29016 -0.51745,0.28977 -1.59373,0.46225 -3.24264,0.50364 l -0.17248,0.16558 0.0828,0.9107 0.19318,0.17248 c 1.43504,-0.069 2.72519,-0.11039 3.86356,-0.11039 1.11768,0 2.18016,0.0414 3.19435,0.11039 l 6.46457,-24.9338 9.94868,17.19977 c 1.24187,2.15256 2.62861,4.73287 4.16714,7.73403 1.69031,-0.11728 2.88387,-0.17248 3.58759,-0.17248 0.80721,0 1.95938,0.0552 3.47032,0.17248 l 0.14488,-0.17248 -0.0828,-0.9107 -0.19318,-0.16558 -1.35225,-0.16558 c -0.71752,-0.0759 -1.17287,-0.17248 -1.37294,-0.28977 -0.19318,-0.11728 -0.34497,-0.28976 -0.44155,-0.50364 -0.0966,-0.22078 -0.19318,-0.69682 -0.28287,-1.42124 -0.0966,-0.72442 -0.23458,-2.04217 -0.42775,-3.94636 -0.18628,-1.91108 -0.33117,-3.56 -0.42776,-4.95364 l -0.61403,-8.49295 c -0.21387,-2.97357 -0.31736,-4.88465 -0.31736,-5.73326 0,-0.8279 0.20008,-1.35225 0.61403,-1.57302 0.40705,-0.21388 1.43504,-0.36566 3.08395,-0.45535 l 0.18628,-0.18628 -0.10349,-0.89 -0.19317,-0.16558 c -1.35225,0.13798 -3.13225,0.21388 -5.34001,0.21388 -1.91798,0 -3.82217,-0.0759 -5.70566,-0.21388 l -0.15178,0.16558 0.0621,0.9107 0.19318,0.16558 c 1.91799,0.0207 3.04946,0.20698 3.40132,0.57264 0.35186,0.36566 0.60713,1.61442 0.75892,3.73938 l 1.39364,19.64899 c -0.71752,-1.04178 -2.7045,-4.35341 -5.95403,-9.92798 -3.25644,-5.57458 -5.70566,-9.92109 -7.35458,-13.03264 l -1.56612,-2.87698 h -0.96589 l -6.42318,24.67853 c -3.73938,-12.90155 -5.60217,-20.05605 -5.60217,-21.47039 0,-0.36566 0.0897,-0.63473 0.26217,-0.80721 0.17938,-0.17938 0.45534,-0.29666 0.8279,-0.35186 0.37256,-0.0552 1.20047,-0.11039 2.48372,-0.17248 l 0.14489,-0.16558 -0.0621,-0.9107 -0.19318,-0.16558 -0.75892,0.0414 c -1.90418,0.0828 -3.34612,0.12418 -4.33271,0.12418 -0.8831,0 -2.26295,-0.0552 -4.11884,-0.16558" style="opacity:1;fill:#000000;fill-opacity:1;fill-rule:nonzero;stroke:none;stroke-width:6.89923;stop-opacity:1" id="path350" inkscape:connector-curvature="0"/>

      <path d="m 210.09344,682.47899 c -1.06938,0.48985 -2.22155,0.73822 -3.46341,0.73822 -1.02799,0 -1.94558,-0.18628 -2.74589,-0.57264 -0.29667,-0.22077 -0.60024,-0.62093 -0.9107,-1.18667 -0.31047,-0.57263 -0.74512,-1.63511 -1.31085,-3.19434 -0.55884,-1.55922 -1.02109,-3.22194 -1.37295,-4.98814 -0.35186,-1.7662 -0.52434,-3.17364 -0.52434,-4.21542 0,-0.77272 0.0621,-1.26946 0.20008,-1.49714 0.13108,-0.22767 0.33116,-0.33806 0.60023,-0.33806 0.50364,0 1.49713,0.68302 2.98046,2.04907 1.47644,1.36605 2.7252,2.95287 3.74628,4.75357 1.02109,1.8007 1.8628,4.20853 2.52512,7.22349 z m 3.5738,-13.46039 0.14488,-0.57264 -0.0828,-0.24837 c -2.95977,-2.55271 -4.97434,-3.82217 -6.04372,-3.82217 -0.70372,0 -1.05558,0.44845 -1.05558,1.34535 0,0.44155 0.0483,0.99349 0.13798,1.66271 0.0897,0.66923 0.22768,1.40745 0.41396,2.20776 l 0.52434,2.26294 0.31736,1.24186 -0.12418,0.0621 c -2.10427,-2.98047 -4.06365,-5.22272 -5.88504,-6.71295 -1.8283,-1.49713 -3.10466,-2.24225 -3.83597,-2.24225 -0.98659,0 -1.47644,1.20736 -1.47644,3.6083 0,1.51093 0.22768,3.22193 0.68303,5.13992 0.45534,1.91108 1.02108,3.69108 1.68341,5.3262 0.65542,1.62822 1.18666,2.7045 1.59372,3.22194 0.40015,0.51054 1.06938,1.09698 2.00767,1.7593 0.9314,0.66233 1.8145,1.17287 2.62861,1.52473 0.81411,0.35186 1.7248,0.52434 2.72519,0.52434 1.22806,0 2.52512,-0.25527 3.90496,-0.75891 l 1.35915,0.80721 0.46225,-0.38636 c -0.0414,-0.20698 -0.33806,-1.26946 -0.89,-3.16674 l -0.97279,-3.5945 -0.52434,-2.09047 c -0.37946,-1.49023 -0.73132,-3.04945 -1.05558,-4.67767 -0.32427,-1.62822 -0.48985,-2.73899 -0.48985,-3.32543 0,-0.56574 0.19318,-0.8486 0.57264,-0.8486 0.24147,0 0.55883,0.10348 0.95209,0.31736 0.39326,0.21388 1.10388,0.71062 2.13186,1.49713 z" style="opacity:1;fill:#000000;fill-opacity:1;fill-rule:nonzero;stroke:none;stroke-width:6.89923;stop-opacity:1" id="path354" inkscape:connector-curvature="0"/>

      <path d="m 223.53589,680.74659 -0.20698,0.48985 0.0621,0.29666 c 0.42085,0.31737 1.33845,0.9176 2.74589,1.78 1.40744,0.8693 2.38713,1.42124 2.93907,1.65582 0.54504,0.24147 0.96589,0.36566 1.26256,0.36566 0.29666,0 0.53124,-0.11729 0.69682,-0.33807 0.17248,-0.22767 0.25527,-0.48984 0.25527,-0.78651 0,-0.32426 -0.20698,-1.30395 -0.61403,-2.95977 -1.8007,-7.38907 -2.7045,-11.74938 -2.7045,-13.07403 0,-0.62093 0.21388,-0.9314 0.63473,-0.9314 0.53814,0 1.39364,0.46915 2.56651,1.39365 1.17287,0.93139 2.44233,2.26294 3.80148,3.99465 1.35914,1.73171 2.35263,3.47721 2.97356,5.22271 0.62093,1.74551 1.16597,3.97396 1.64202,6.69225 0.17248,0.0276 1.13837,0.25527 2.89767,0.67613 l 0.31737,-0.31737 c -0.0138,-0.0828 -0.17938,-0.66922 -0.51054,-1.7524 -0.55884,-1.8145 -1.12458,-3.90496 -1.69031,-6.2714 -0.55884,-2.36643 -0.9659,-4.25682 -1.22117,-5.67806 -0.25527,-1.41434 -0.37946,-2.41473 -0.37946,-3.00806 0,-0.66233 0.22078,-0.99349 0.67613,-0.99349 0.23457,0 0.53124,0.11039 0.8831,0.32426 0.35186,0.22078 1.15217,0.79341 2.38713,1.72481 l 0.23458,-0.0828 0.23457,-0.48985 -0.0414,-0.26907 c -2.48372,-1.95938 -4.10504,-3.15294 -4.87085,-3.58069 -0.76581,-0.43466 -1.35915,-0.64853 -1.7662,-0.64853 -0.33806,0 -0.60023,0.15178 -0.79341,0.45535 -0.18628,0.30356 -0.28287,0.65542 -0.28287,1.04868 0,0.8693 0.59333,3.76698 1.7731,8.67923 l -0.12419,0.069 -1.56612,-2.24225 c -0.53124,-0.75892 -1.15907,-1.55233 -1.87659,-2.38023 -0.71752,-0.82101 -1.56612,-1.66272 -2.52512,-2.52512 -0.96589,-0.8555 -1.84209,-1.53163 -2.6355,-2.02837 -0.78651,-0.48985 -1.35915,-0.79341 -1.71101,-0.9176 -0.35186,-0.11729 -0.62093,-0.17938 -0.82101,-0.17938 -0.40705,0 -0.76581,0.20008 -1.06938,0.60023 -0.30356,0.40706 -0.45535,1.00039 -0.45535,1.7869 0,1.08318 0.27597,2.739 0.82791,4.96745 1.39365,5.58837 2.09047,8.98279 2.09047,10.18325 0,0.44845 -0.17938,0.67613 -0.55194,0.67613 -0.42085,0 -1.49713,-0.56574 -3.22884,-1.69031 z" style="opacity:1;fill:#000000;fill-opacity:1;fill-rule:nonzero;stroke:none;stroke-width:6.89923;stop-opacity:1" id="path358" inkscape:connector-curvature="0"/>

      <path d="m 254.68313,664.2464 -0.37946,0.29667 c 0.98659,3.22194 1.8076,6.59566 2.46993,10.10736 0.66232,3.51861 0.99348,5.77466 0.99348,6.77504 0,0.63473 -0.16558,0.9521 -0.50364,0.9521 -0.42085,0 -1.59372,-0.63473 -3.51171,-1.90419 l -0.24837,0.0621 -0.21387,0.46225 0.0621,0.31737 c 1.25566,1.00038 2.57341,1.91798 3.96016,2.74589 1.38674,0.8348 2.40783,1.24876 3.05635,1.24876 0.56574,0 0.84171,-0.35186 0.84171,-1.05558 0,-0.81411 -0.51054,-3.53931 -1.53853,-8.17559 1.31085,2.29745 2.59411,4.23613 3.84287,5.82295 1.25566,1.57992 2.15946,2.55271 2.71829,2.91147 0.55194,0.35876 1.11078,0.53814 1.65582,0.53814 0.25527,0 0.51054,-0.0552 0.75891,-0.16558 l 0.0897,-0.23457 c -0.21387,-0.77272 -0.45535,-2.27675 -0.71752,-4.4983 L 267.426,680.3216 c -0.41395,0.56573 -0.8831,0.8486 -1.41434,0.8486 -0.40016,0 -0.8693,-0.15868 -1.42814,-0.48294 -0.55884,-0.32427 -1.24186,-0.97969 -2.06287,-1.96628 -0.81411,-0.98659 -1.52473,-2.10427 -2.12496,-3.35303 -0.59333,-1.24186 -1.07628,-2.6079 -1.44194,-4.08434 -0.36566,-1.48333 -0.83481,-3.5807 -1.39364,-6.29899 -1.42814,-0.32427 -2.38024,-0.57264 -2.87698,-0.73822" style="opacity:1;fill:#000000;fill-opacity:1;fill-rule:nonzero;stroke:none;stroke-width:6.89923;stop-opacity:1" id="path370" inkscape:connector-curvature="0"/>

    </g>

    <path id="path374" style="opacity:1;fill:#3b348b;fill-opacity:1;fill-rule:nonzero;stroke:none;stroke-width:6.9082;stop-opacity:1" d="m 356.56057,846.64405 -9.72602,-1.37581 c -5.40221,-1.5267 -11.21207,-2.4312 -16.83534,-3.30164 -6.59731,-1.02932 -13.41565,-2.0862 -19.83336,-4.16557 -26.56891,-8.61452 -84.68077,-37.65703 -94.69766,-72.48817 -3.59916,-12.51765 -0.6212,-24.58511 8.84302,-35.88691 7.50921,-8.96685 18.25086,-12.25578 28.63387,-15.44047 l 1.20859,-0.37255 c 2.56294,-0.78753 5.52043,-2.24556 8.65675,-3.79301 3.50246,-1.72705 7.12874,-3.51622 10.39631,-4.42811 l 0.22881,-0.0616 0.21415,0.0821 c 0.18652,0.0691 0.55255,0.15841 1.23647,0.15841 4.36597,0 13.32492,-3.13551 14.60295,-4.51025 l 0.20094,-0.22147 0.29628,-0.007 c 1.30566,-0.0276 3.93185,-0.51747 6.97145,-1.08393 4.40743,-0.82208 9.40777,-1.75423 12.81352,-1.75423 2.39714,0 3.72428,0.47618 4.18023,1.49168 0.10362,0.22796 0.18652,0.59426 0,1.05019 -0.71846,1.78233 -5.53393,3.82006 -12.79445,6.73532 -0.13815,0.0553 -0.2696,0.10313 -0.40774,0.1584 1.20891,-0.0415 2.07963,0.45707 2.74281,1.42421 l 0.17307,0.24788 -0.0689,0.29776 c -0.23487,1.09148 -2.85992,2.15416 -13.11859,5.88459 -7.75099,2.82545 -17.24941,6.27375 -20.18539,8.56727 l 0.0264,0.0132 c 1.8583,0.80136 4.8017,-1.15412 7.03306,-2.72228 1.25728,-0.88424 2.34259,-1.65012 3.22684,-1.91264 2.6942,-0.80133 5.32626,-0.84928 7.8823,-0.89764 1.83758,-0.0345 3.57809,-0.0636 5.20842,-0.38137 2.24517,-5.88577 10.41085,-7.92333 18.31382,-9.89908 3.88241,-0.97405 7.54275,-1.88538 10.34058,-3.20484 1.3471,-0.64247 1.87907,-1.51946 2.5008,-2.54187 0.79444,-1.33328 1.70008,-2.83325 4.51172,-3.6346 l 0.44882,-0.15109 0.96073,0.43417 0.62776,0.36668 v 0.69818 l -0.96659,1.23647 c 3.14322,1.27111 4.88451,7.19857 4.91215,11.43329 v 0.46936 l -17.36044,7.04626 c -4.06201,1.78232 -10.1135,3.80569 -17.11842,6.15448 -18.56232,6.21737 -43.9919,14.74216 -48.17827,24.66924 -0.77372,1.82376 -0.19294,2.97047 0.53243,4.42811 0.2556,0.5112 0.51777,1.02934 0.73191,1.59582 5.71307,14.97696 21.75404,22.231 35.90893,28.62799 1.37473,0.62173 2.73533,1.23686 4.1377,1.88624 l 9.82281,5.90659 17.02894,5.3815 c 1.55435,0.73918 3.39861,1.78942 5.35363,2.90856 3.2883,1.87212 6.68802,3.81219 9.23024,4.59972 2.32116,0.71845 4.82872,1.18157 7.26041,1.6237 3.45411,0.63555 6.71404,1.23744 9.51186,2.51546 l 0.22881,0.11002 0.4899,0.96658 -1.6017,0.91966 c 3.74425,3.28829 21.06186,5.43576 27.74208,5.43576 0.44213,0 0.82964,-0.006 1.15433,-0.0264 l 0.44149,-0.0353 0.21414,0.40043 c 3.4334,6.43153 21.88498,9.98268 33.33186,9.98268 2.43169,0 4.60107,-0.15176 6.26594,-0.44882 l 0.30509,-0.0484 0.24054,0.18628 c 1.18822,0.91187 1.67211,1.83784 1.45796,2.74281 -0.5043,2.10009 -4.59421,3.02558 -9.88588,4.02036 -1.20203,0.22797 -2.52722,0.47668 -3.21805,0.69084 l 0.26254,1.93464 -0.61603,0.14521 c -3.09486,0.73918 -6.17539,1.52595 -9.27718,2.32039 -8.30365,2.12772 -16.88301,4.3182 -26.3956,5.74819 z m -43.21481,-34.9042 h 1.1338 l 1.09126,-1.07806 -34.44365,-15.74261 -0.84339,0.42829 v 1.3054 l 0.30363,0.20682 c 3.94458,2.65275 11.46854,7.3919 17.54084,9.31238 z m -48.82951,-19.43295 1.9405,-0.27721 -2.50813,-3.34272 -0.15841,-0.48403 h -0.22148 l -13.24914,-11.83372 -7.66083,-12.17841 -0.7671,-0.11881 0.14521,-2.07838 -0.29775,-0.22881 c -0.35233,-0.26942 -0.77272,-0.45591 -1.1734,-0.64244 -0.75299,-0.3385 -1.11231,-0.54467 -1.21593,-0.86245 l 2.97749,-0.74657 0.20681,-9.41652 -0.75391,0.0351 c -2.26589,0.11054 -4.79417,3.09476 -5.02214,5.2363 -0.0898,0.89806 -0.60044,1.50575 -1.18073,2.21039 -0.86352,1.03623 -1.83823,2.21034 -1.58262,4.40025 1.50598,13.00123 19.77223,25.12494 30.32795,30.237 z m -6.63997,-61.82637 3.38819,-2.25732 0.0894,0.16281 0.91819,-0.50456 -0.13055,-0.24202 0.34908,-0.23321 h -0.47521 l -0.40629,-0.7539 -0.92552,0.50309 0.1364,0.25081 h -1.40368 z m 5.93447,-2.95256 1.67942,-1.00912 -0.71871,-1.19541 -1.67943,1.00913 z m 114.42982,-30.41889 -0.31096,-0.22147 c -7.39867,-5.3124 -6.54244,-11.57798 -5.55457,-18.83158 0.64246,-4.73212 1.37478,-10.09994 -0.16575,-16.02716 -1.58888,-6.11376 -5.76098,-10.9222 -9.80227,-15.57834 -1.05695,-1.22274 -2.10086,-2.41748 -3.06111,-3.6126 -11.49523,-14.23089 -54.57345,-34.25009 -73.52954,-39.67994 -5.3124,-1.5267 -10.47285,-3.22649 -15.45367,-4.86373 -4.214,-1.38855 -8.20103,-2.70114 -12.04199,-3.83408 l -8.75942,0.0821 -0.13054,-0.0543 c -1.29185,-0.53193 -2.26653,-1.41613 -3.13005,-2.18985 -0.64246,-0.5872 -1.2574,-1.14017 -1.90676,-1.45795 l -15.33632,-1.67209 -1.6721,-0.22736 c -12.82852,-1.7754 -28.79315,-3.98661 -44.04644,-3.98661 -15.70925,0 -27.52154,2.31437 -36.10841,7.07412 -3.19851,1.7685 -4.4284,5.80969 -5.62351,9.7128 -0.46286,1.51982 -0.89796,2.9492 -1.45062,4.27557 -3.91694,9.43661 0.97438,14.56346 7.26774,19.82752 l 0.28309,0.242 -0.18042,1.81584 -3.27378,0.10413 0.0558,1.98892 5.41524,4.60118 -3.81355,-0.38721 0.75391,0.91231 -0.31828,0.9886 -0.37989,0.0968 c -0.31087,0.076 -0.62827,0.11 -0.94604,0.11 -1.61653,0 -2.89444,-1.04396 -3.68888,-1.77622 -2.18991,0.58718 -4.02161,0.87858 -5.58978,0.87858 -4.95317,0 -6.36823,-2.94308 -7.74296,-5.78927 -0.37996,-0.78753 -0.76817,-1.58982 -1.23794,-2.34972 l -0.97391,1.84517 -0.35936,0.0484 c -5.32623,0.68391 -10.14062,-6.06568 -10.51365,-10.36257 l -0.0278,-0.3183 0.71138,-0.66883 2.94376,0.71138 0.19947,-4.54545 -3.10804,-0.4283 c -0.38685,0.80826 -0.96775,1.52544 -1.53422,2.21626 -0.92569,1.13985 -1.79581,2.2258 -1.89943,3.69034 -0.22796,3.23994 10.14863,18.5823 13.057,19.32147 l 0.28307,0.0689 0.56617,0.94605 -0.33149,0.94018 10.99034,6.47276 c 0.17962,-0.0137 0.37317,-0.0205 0.5735,-0.0205 3.42647,0 10.79121,2.43237 12.72551,5.20256 l 0.19947,0.28308 -0.29628,0.88298 -0.28308,0.12468 c -0.63555,0.27633 -1.49211,0.40775 -2.61815,0.40775 -10.09286,0 -42.21612,-11.89517 -44.86195,-15.74994 -1.33329,-1.9412 -1.0231,-4.90582 -0.72605,-7.77964 0.12436,-1.1882 0.25584,-2.39619 0.24203,-3.46005 -1.18821,0.65628 -2.369635,0.31743 -3.025912,-0.81552 -0.766805,-1.33328 -0.704076,-3.46163 0.152546,-4.94 0.683905,-1.19511 1.802436,-1.85756 3.156436,-1.8921 1.67179,-3.59227 2.95059,-5.23646 6.4185,-7.19147 0.27633,-1.88594 1.15269,-2.6661 1.86423,-3.30165 0.57338,-0.51812 0.98849,-0.88488 1.10592,-1.79677 0.28325,-2.05173 -0.17977,-4.26228 -0.62189,-6.40382 -0.49048,-2.32806 -0.98714,-4.72506 -0.55883,-6.99786 -0.53193,-0.28322 -1.03707,-0.41437 -1.56209,-0.54563 -0.64247,-0.1658 -1.29848,-0.33232 -1.94785,-0.77444 -2.54913,5.29168 -2.22384,5.83024 -1.60902,6.85265 0.59411,0.98096 1.40142,2.32174 1.22181,6.43903 l -0.21415,0.95338 -0.67616,0.67763 -0.69818,0.22736 -0.26255,-0.14521 c -4.877186,-2.63893 -5.886016,-8.44208 -4.718528,-13.02913 0.856608,-3.38502 2.694188,-5.5751 4.690658,-5.5751 0.63556,0 1.24392,0.22145 1.81731,0.64976 l 2.86015,-5.93447 0.0689,-0.1232 c 5.04298,-6.60424 24.14417,-20.82947 32.45473,-22.35617 1.81687,-2.34189 4.1314,-3.41838 6.57691,-4.55132 0.89806,-0.42142 1.81584,-0.84323 2.72081,-1.34061 -11.52287,0.88425 -23.75661,10.22445 -29.01374,16.22077 l -0.25522,0.29042 -1.2306,-0.20828 -0.32415,-0.63511 v -0.16574 c 0.0207,-3.0327 3.06085,-5.84439 5.91393,-8.09646 l -12.71818,6.39063 -0.7187,-1.90677 1.85837,-1.30687 c 3.59226,-2.54223 7.08065,-5.00795 10.68672,-7.30148 l -13.56742,6.4669 -1.10592,-1.32742 0.29775,-0.43415 c 2.05173,-3.01197 19.45266,-14.47973 26.63027,-14.47973 2.46623,0.007 3.29625,1.29774 3.56567,2.29252 l 2.65922,1.11326 c -0.31778,-0.41449 -0.57354,-0.87085 -0.83605,-1.3406 -0.22106,-0.38686 -0.456,-0.80187 -0.73924,-1.22328 l -0.17895,-0.25521 0.0748,-0.31094 c 1.03622,-4.13802 8.2634,-5.98287 23.4269,-5.98287 5.89269,0 12.15026,0.2764 17.66991,0.52509 4.53869,0.20034 8.44858,0.37402 11.47437,0.37402 1.5129,0 2.67366,-0.0495 3.551,-0.13933 2.90145,-0.29706 5.96234,-0.44884 9.10557,-0.44884 23.32207,0 48.59962,8.06944 65.55924,14.79803 l 12.47616,2.27932 c 20.36537,5.73381 40.55051,15.50944 53.89714,22.70087 1.40235,0.7599 3.08099,1.44291 4.85639,2.17519 4.28308,1.75467 9.11907,3.73059 11.21916,7.33667 3.41956,-0.25561 5.87887,1.86473 8.04805,3.72994 0.93951,0.80826 1.8236,1.57517 2.73548,2.12091 21.13908,12.67654 47.75605,45.45682 29.18682,79.42441 -4.03437,7.37797 -10.17599,16.67564 -16.55225,19.10733 z m 2.23238,-9.40185 0.82872,-0.15841 c 2.83236,-0.53193 3.83352,-2.35662 4.80067,-4.1113 0.31086,-0.56647 0.6296,-1.14669 1.01645,-1.71316 0.59411,-0.87733 1.18042,-1.72022 1.7469,-2.54921 8.04805,-11.66793 13.36712,-19.36945 5.78192,-37.69688 l -0.15841,-0.37403 -0.40775,-0.0484 c -0.78062,-0.0967 -1.77578,-0.8703 -2.41134,-1.87891 -0.60101,-0.96024 -0.79347,-1.96177 -0.53096,-2.73548 l 0.21414,-0.61457 -0.59403,-0.25521 c -1.08459,-0.46975 -2.26584,-2.67319 -3.30898,-4.61439 -1.57508,-2.92908 -3.06082,-5.69978 -5.22309,-5.69978 -0.13816,0 -0.2828,0.006 -0.42097,0.0337 l -0.64976,0.1188 0.14521,1.29074 -0.32415,-0.24788 -2.27346,-4.87693 c -1.7616,-2.45932 -4.04171,-3.95237 -6.24541,-5.39617 -0.97407,-0.63556 -1.98207,-1.29918 -2.9423,-2.03145 l -0.69818,-1.92731 -10.90233,-5.09695 c -0.74336,-1.1904 -4.35175,-3.03432 -5.17469,-3.28404 1.06616,1.96146 2.99877,2.98996 5.13362,3.91475 l 0.83751,1.18513 c 1.24348,1.75468 3.05332,2.92995 4.80799,4.06289 1.65107,1.06387 3.21191,2.07217 4.25505,3.49526 2.39714,3.26758 4.73957,6.42357 7.08146,9.60134 2.54911,3.44718 5.11076,6.90842 7.7635,10.52831 l 0.33881,0.4635 1.13967,-0.53243 c 1.1882,3.05342 2.70174,12.43465 2.9159,17.11841 l -1.02233,-2.46561 -1.02966,-0.49721 -0.31095,0.62189 c -0.9326,1.88594 -0.23478,6.29322 1.00179,8.33113 0.39376,0.64937 0.8365,1.06334 1.32007,1.22914 0.18653,0.46284 0.20625,0.87785 0.0543,1.22327 -0.18651,0.44903 -0.65622,0.82155 -1.28486,1.01499 l -0.3799,0.11734 -0.0895,0.38722 c -0.64939,2.67347 -1.00211,5.54774 -1.34061,8.31793 -0.62174,5.00153 -1.20118,9.71958 -3.34272,12.92498 l -0.11735,0.17894 z M 139.90866,631.01595 c 0.0553,-0.0829 0.11089,-0.1654 0.17307,-0.25522 -0.75989,-1.64415 -1.51311,-3.29481 -2.26612,-4.94588 0.19344,-0.30395 0.38635,-0.61569 0.5867,-0.91964 -4.01367,-4.44889 -2.50786,-8.48298 -5.78925,-12.66243 -0.0553,-0.0276 -0.11048,-0.056 -0.16575,-0.0836 -0.14508,0.0829 -0.28278,0.16643 -0.42095,0.24934 -0.84971,3.1156 0.18573,5.68523 1.8437,7.37775 -1.6856,5.54727 1.85914,8.8011 6.0386,11.23969 z m -13.96197,-4.896 c -0.53193,-0.64939 -1.16849,-1.24953 -1.96984,-1.74691 0.35231,0.64246 1.10631,1.18042 1.96984,1.74691 z m -4.90481,-16.82508 c 1.37474,-0.64246 1.46476,-2.4523 0.6703,-3.68887 -0.16579,-0.0276 -0.33877,-0.056 -0.50456,-0.0836 -1.05695,1.06386 -1.47829,2.7777 -0.16574,3.77248 z m 238.07962,-4.33424 h 1.55475 l -0.41509,-0.97392 c -1.07768,-2.52149 -6.56907,-4.72418 -9.39452,-5.38737 l 1.45062,-2.07252 -0.0631,-0.29774 c -0.5872,-2.64584 -6.12039,-5.78192 -10.21003,-5.78192 -1.15368,0 -2.1338,0.2479 -2.91443,0.72458 l -0.15255,0.12466 -0.27575,0.30363 0.0485,0.47082 c 0.30395,0.93951 0.84899,1.35304 1.24967,1.65009 0.44212,0.33159 0.66246,0.50496 0.55883,1.58263 l -0.047,0.48402 z m -242.86121,-3.88688 c 4.15872,-0.2487 13.88656,-14.38316 14.5912,-18.19648 l -0.0836,-0.0821 c -4.8081,-0.91189 -23.70933,10.92138 -14.5076,18.27861 z m 214.96073,-8.5262 2.31453,-0.95339 -0.84338,-3.12272 -1.99624,-0.7319 1.09125,-0.18774 0.51924,-0.5383 -0.17309,-0.5383 -1.4374,-2.51546 -0.16575,-0.0968 c -0.40067,-0.22796 -0.87089,-0.50317 -1.389,-0.81404 -3.88242,-2.30042 -10.36864,-6.15594 -14.82443,-6.15594 -0.57338,0 -1.11183,0.0693 -1.58849,0.19361 l -0.42829,0.11735 -0.22882,1.3406 0.29775,0.25522 c 1.02932,0.87044 2.32848,1.28462 3.57888,1.68529 1.87903,0.60102 3.64629,1.16796 4.5029,3.19897 -0.64937,0.28324 -1.02892,-0.24142 -1.16019,-0.7319 l -0.10268,-0.37989 -14.91535,-4.41491 h -0.44882 l -0.75391,1.67209 4.14502,3.05964 c 8.99449,2.14154 15.86227,4.88418 23.70999,9.47812 z m -184.8704,-5.59271 1.05753,-3.97196 -1.48582,-0.24934 -1.12499,0.56029 z m 83.64278,-3.14031 1.94784,-1.32594 0.24788,-0.25522 -0.19361,-1.42274 -12.53043,-1.30688 v 1.64423 l 0.40775,0.18774 c 1.44382,0.65628 3.14331,0.67702 4.78747,0.69084 2.03101,0.0276 3.94334,0.0484 4.93121,1.28488 z m 6.01806,-0.34908 c 0.78063,-0.11055 1.56764,-0.2283 2.34827,-0.33882 -1.81686,-0.46977 -3.63359,-0.9461 -5.45043,-1.42276 l -0.0821,0.0821 c 0.39377,1.65106 1.96848,1.10605 3.18431,1.67944 z m -19.57228,-1.5269 1.8305,-0.53829 0.37255,-0.37402 0.0278,-0.43416 c -0.37995,-2.42478 -4.55187,-2.61814 -5.82299,-2.61814 -1.02932,0 -1.95615,0.10975 -2.54333,0.29628 l -0.27575,0.0894 -0.50457,1.00179 0.28309,0.35349 c 1.09841,1.34019 2.55577,1.49811 3.97195,1.65009 0.80826,0.0829 1.64476,0.17314 2.4392,0.48402 z m -10.80114,-0.44149 3.65367,-1.88624 v -0.78763 l -0.29627,-0.28896 c -0.65628,-0.45594 -1.54114,-0.7187 -2.43921,-0.7187 -1.16058,0 -2.14744,0.44178 -2.72082,1.20859 l -0.17307,0.22882 0.17307,1.21446 z m 93.18398,-2.03437 1.47848,-0.35936 0.37256,-1.28487 -0.17308,-0.26841 c -1.47144,-2.25899 -7.79816,-5.02948 -11.48023,-5.02948 -0.16581,0 -0.32471,0.006 -0.4767,0.0132 l -0.21415,0.0176 -0.19801,-0.18041 c -1.22276,-1.07768 -4.283,-2.64455 -6.61797,-2.64455 -0.42141,10e-6 -0.81478,0.0544 -1.1602,0.15107 l -0.30361,0.0836 -0.23469,0.48991 -0.0484,0.38721 0.14521,0.88446 5.99607,2.37612 h 1.74689 l -0.0381,0.14815 0.45617,0.26255 c 1.28491,0.74608 2.92912,1.25788 4.52491,1.74836 2.32115,0.71845 4.71111,1.45803 5.94766,2.88803 z m 10.17483,-0.46643 1.85104,-0.16574 0.29775,-2.32773 -3.21951,-2.21039 h -1.25701 l -0.66296,0.98712 z m -5.73058,-3.0787 c 0.33158,-0.0829 0.67061,-0.16645 1.00912,-0.24936 0.0829,-0.44903 0.16498,-0.89157 0.24789,-1.3406 -0.6701,0.11052 -1.33934,0.22095 -2.00945,0.33148 -0.0276,0.0553 -0.056,0.11738 -0.0836,0.16575 0.0276,0.20034 0.056,0.39473 0.0836,0.58816 0.24871,0.1658 0.50375,0.33877 0.75244,0.50457 z m -26.82976,-4.99721 0.67764,-0.42097 -0.73925,-1.18806 -0.67029,0.42096 z m -4.86814,-0.64391 0.73338,-0.28895 0.32415,-0.97392 -0.86391,-0.82285 -0.68351,0.62924 -0.29774,0.35936 z m -12.32802,-0.47962 c 1.56816,-0.6701 3.12985,-1.34083 4.698,-2.01092 -2.77018,-1.37474 -5.53308,-2.74201 -8.30326,-4.10983 -0.39377,0.24869 -0.7811,0.50376 -1.17487,0.75245 0.22105,3.37809 2.06521,4.40805 4.78013,5.3683 z m 26.50855,-0.0587 0.37988,-0.35348 c 1.45763,-1.3402 1.42248,-2.49983 1.13233,-3.24592 -1.83066,-4.69067 -19.79806,-5.94766 -22.15376,-5.94766 -0.22106,0 -0.40747,0.007 -0.54563,0.0205 l -0.26989,0.0132 -0.62923,0.64977 0.80232,3.03177 -2.21039,1.17487 3.54366,1.17486 0.29628,-0.41509 c 0.74608,-1.03622 1.72806,-1.52689 3.08897,-1.52689 1.97574,0 4.30369,1.03743 6.35541,1.94932 1.64416,0.73226 3.0598,1.35967 4.10984,1.35967 0.61483,0 1.09867,-0.22018 1.40954,-0.62777 z m -40.0437,-3.82234 1.96105,-0.5383 -0.72459,-1.44474 -2.90562,-0.24789 0.0381,-0.0514 -0.6571,-0.38723 c -2.07348,-1.24665 -8.74967,-2.54155 -15.49033,-3.34711 l 3.16525,-0.63511 0.1584,-0.27574 c 0.33159,-0.57338 0.34607,-1.18857 0.0353,-1.7205 -0.70464,-1.22277 -3.01193,-1.7689 -4.42812,-1.7689 -0.13125,0 -0.26244,0.008 -0.37989,0.0146 l -0.43562,0.0338 -0.44149,1.14699 -0.25669,0.0558 -0.71137,-1.5753 -0.242,-0.10413 c -1.38165,-0.61483 -24.28807,-2.49347 -24.4815,-2.49347 l -0.20828,0.0205 -0.54563,0.13788 0.11,4.8564 0.29775,0.20094 c 1.52671,1.05005 3.67485,1.5753 6.37596,1.5753 4.26235,0 8.66974,-1.32628 10.45204,-2.3556 0.88426,0.0622 1.74767,-0.0421 2.56975,-0.15255 1.76849,-0.22105 3.08776,-0.51823 3.80621,1.66476 l 0.1188,0.35935 3.09485,0.80965 c -3.45943,-0.36347 -6.83169,-0.59843 -9.4708,-0.59843 h -0.007 c -2.74254,0 -4.64846,0.2198 -5.67777,0.66883 l -0.42095,0.18041 v 1.07807 l 0.61456,0.1584 31.94284,3.99249 0.44882,-0.62044 -0.10267,0.44443 z m -101.68671,-2.74429 c 13.38808,-2.62511 26.78322,-5.25719 40.1713,-7.8823 -12.28277,-4.5525 -28.03982,4.29032 -38.32613,6.62529 -0.61483,0.4214 -1.23034,0.83562 -1.84517,1.25701 z m 95.04381,-1.7689 3.93089,-1.75423 -0.29042,-1.36114 -9.89321,-1.8789 -0.64978,2.5976 z m -44.4146,-3.1227 1.71316,-0.66297 0.0146,-0.46936 c 0.0207,-0.89807 -0.52557,-1.98334 -1.48582,-2.9643 -1.05003,-1.07077 -2.27942,-1.71317 -3.28112,-1.71317 h -0.007 c -0.6701,0 -1.25022,0.29679 -1.61634,0.82872 l -0.17309,0.24201 0.31828,1.56209 2.37614,0.61457 -0.4283,2.04464 z m -4.42371,-0.55883 c 0.42139,-0.11054 0.84251,-0.22139 1.257,-0.33883 l -0.0836,-0.41362 c -0.95332,0.0276 -1.89949,0.0545 -2.85281,0.0821 l -0.24789,0.16575 v 0.16573 0.0909 c 0.64246,0.0829 1.28484,0.16497 1.92731,0.24788 z m -28.17476,-1.96398 4.85639,-1.23646 0.46936,-1.86572 -6.16914,1.54009 0.007,1.35381 z m 9.30505,-1.36261 3.88248,-1.93318 -4.57332,-0.23467 -0.60137,0.73924 -0.31828,0.62043 z m -28.22757,-0.46496 1.83049,-0.67764 c -0.51811,-0.2625 -0.91178,-0.60698 -1.23646,-1.00765 l -0.0821,0.46202 c -0.0898,0.47668 -0.2632,0.87786 -0.51189,1.22327 z m 14.35946,-2.55067 0.98126,-0.43563 0.28308,-0.55882 -1.03553,-0.87712 -0.91965,0.66297 z m 1.7337,-0.90792 10.99181,-0.74657 -0.30655,-0.47816 c 0.0282,0.009 0.0569,0.0184 0.0851,0.0278 0.64245,-0.16579 1.28484,-0.33877 1.9273,-0.50455 v -0.16576 c -0.44213,-0.16579 -0.89157,-0.33876 -1.34061,-0.50455 -0.30396,0.19343 -0.6157,0.39473 -0.91965,0.58816 0.0126,0.0759 0.0254,0.15283 0.0382,0.23028 l -0.12027,-0.18774 c -0.27633,-0.43523 -0.93241,-0.93285 -3.59207,-0.93285 -2.53531,0 -6.17505,0.49748 -7.34254,1.21592 l -0.75977,0.46936 0.86244,0.84339 z m 43.37468,-0.044 0.50456,-0.0909 -0.22149,-1.37434 -0.50455,0.0836 z m -7.32641,-0.041 1.00179,-0.49723 0.20828,-0.91231 v -0.90353 l -2.46708,0.64831 0.007,1.35381 z m -15.00336,-0.6175 1.15431,-0.28308 1.02967,-1.037 -1.84517,-1.05606 -0.37989,0.38576 0.46349,0.44882 h -0.0146 l -0.5251,-0.37255 -0.30362,0.31095 0.0484,0.48989 z" inkscape:connector-curvature="0"/>

    
  </g>

</svg>