<?xml version="1.0" encoding="UTF-8" standalone="no"?>
<!-- Created with Inkscape (http://www.inkscape.org/) -->

<svg
   width="210mm"
   height="297mm"
   viewBox="0 0 210 297"
   version="1.1"
   id="svg5"
   xml:space="preserve"
   sodipodi:docname="TSM-Logo-bandeau-noir-SVG.svg"
   inkscape:version="1.2.2 (732a01da63, 2022-12-09, custom)"
   xmlns:inkscape="http://www.inkscape.org/namespaces/inkscape"
   xmlns:sodipodi="http://sodipodi.sourceforge.net/DTD/sodipodi-0.dtd"
   xmlns="http://www.w3.org/2000/svg"
   xmlns:svg="http://www.w3.org/2000/svg"><sodipodi:namedview
     id="namedview853"
     pagecolor="#ffffff"
     bordercolor="#666666"
     borderopacity="1.0"
     inkscape:showpageshadow="2"
     inkscape:pageopacity="0.0"
     inkscape:pagecheckerboard="0"
     inkscape:deskcolor="#d1d1d1"
     inkscape:document-units="mm"
     showgrid="false"
     inkscape:zoom="0.914906"
     inkscape:cx="397.30857"
     inkscape:cy="561.25984"
     inkscape:window-width="2488"
     inkscape:window-height="1376"
     inkscape:window-x="72"
     inkscape:window-y="27"
     inkscape:window-maximized="1"
     inkscape:current-layer="layer1" /><defs
     id="defs2"><clipPath
       clipPathUnits="userSpaceOnUse"
       id="clipPath1184"><path
         style="display:block;fill:#ee08d3;fill-opacity:1;stroke:#ee08d3;stroke-width:1.414;stroke-dasharray:none;stroke-opacity:1;stop-color:#000000"
         id="path1186"
         clip-path="none" /></clipPath><clipPath
       clipPathUnits="userSpaceOnUse"
       id="clipPath1184-1"><path
         style="display:none;fill:#ee08d3;fill-opacity:1;stroke:#ee08d3;stroke-width:1.414;stroke-dasharray:none;stroke-opacity:1;stop-color:#000000"
         id="path1186-2"
         d="m 129.75568,184.56228 a 21.146576,20.838083 0 0 1 20.72807,21.24238 21.146576,20.838083 0 0 1 -21.55676,20.42579 21.146576,20.838083 0 0 1 -20.72828,-21.24219 21.146576,20.838083 0 0 1 21.55657,-20.42599"
         clip-path="none" /><path
         id="lpe_path-effect1188-9"
         style="fill:#ee08d3;fill-opacity:1;stroke:#ee08d3;stroke-width:1.414;stroke-dasharray:none;stroke-opacity:1;stop-color:#000000"
         class="powerclip"
         d="m 93.916139,170.37428 h 70.658321 v 68.80399 H 93.916139 Z m 35.839141,14.18799 a 21.146576,20.838083 0 0 0 -21.55657,20.42599 21.146576,20.838083 0 0 0 20.72828,21.24219 21.146576,20.838083 0 0 0 21.55676,-20.42579 21.146576,20.838083 0 0 0 -20.72807,-21.24238" /></clipPath><clipPath
       clipPathUnits="userSpaceOnUse"
       id="clipath_lpe_path-effect1188-3"><path
         style="display:block;fill:#ee08d3;fill-opacity:1;stroke:#ee08d3;stroke-width:1.414;stroke-dasharray:none;stroke-opacity:1;stop-color:#000000"
         id="path1813"
         clip-path="none" /></clipPath><clipPath
       clipPathUnits="userSpaceOnUse"
       id="clipath_lpe_path-effect1188-3-2"><path
         style="display:none;fill:#ee08d3;fill-opacity:1;stroke:#ee08d3;stroke-width:1.414;stroke-dasharray:none;stroke-opacity:1;stop-color:#000000"
         id="path1813-5"
         d="m 129.75568,184.56228 a 21.146576,20.838083 0 0 1 20.72807,21.24238 21.146576,20.838083 0 0 1 -21.55676,20.42579 21.146576,20.838083 0 0 1 -20.72828,-21.24219 21.146576,20.838083 0 0 1 21.55657,-20.42599"
         clip-path="none" /><path
         id="lpe_path-effect1188-3-4"
         style="fill:#ee08d3;fill-opacity:1;stroke:#ee08d3;stroke-width:1.414;stroke-dasharray:none;stroke-opacity:1;stop-color:#000000"
         class="powerclip"
         d="m 93.916139,170.37428 h 70.658321 v 68.80399 H 93.916139 Z m 35.839141,14.18799 a 21.146576,20.838083 0 0 0 -21.55657,20.42599 21.146576,20.838083 0 0 0 20.72828,21.24219 21.146576,20.838083 0 0 0 21.55676,-20.42579 21.146576,20.838083 0 0 0 -20.72807,-21.24238" /></clipPath><clipPath
       clipPathUnits="userSpaceOnUse"
       id="clipath_lpe_path-effect1188-3-7"><path
         style="display:block;fill:#ee08d3;fill-opacity:1;stroke:#ee08d3;stroke-width:1.414;stroke-dasharray:none;stroke-opacity:1;stop-color:#000000"
         id="path2021"
         clip-path="none" /></clipPath><clipPath
       clipPathUnits="userSpaceOnUse"
       id="clipath_lpe_path-effect1188-3-8"><path
         style="display:none;fill:#ee08d3;fill-opacity:1;stroke:#ee08d3;stroke-width:1.414;stroke-dasharray:none;stroke-opacity:1;stop-color:#000000"
         id="path1813-7"
         d="m 129.75568,184.56228 a 21.146576,20.838083 0 0 1 20.72807,21.24238 21.146576,20.838083 0 0 1 -21.55676,20.42579 21.146576,20.838083 0 0 1 -20.72828,-21.24219 21.146576,20.838083 0 0 1 21.55657,-20.42599"
         clip-path="none" /><path
         id="lpe_path-effect1188-3-1"
         style="fill:#ee08d3;fill-opacity:1;stroke:#ee08d3;stroke-width:1.414;stroke-dasharray:none;stroke-opacity:1;stop-color:#000000"
         class="powerclip"
         d="m 93.916139,170.37428 h 70.658321 v 68.80399 H 93.916139 Z m 35.839141,14.18799 a 21.146576,20.838083 0 0 0 -21.55657,20.42599 21.146576,20.838083 0 0 0 20.72828,21.24219 21.146576,20.838083 0 0 0 21.55676,-20.42579 21.146576,20.838083 0 0 0 -20.72807,-21.24238" /></clipPath><clipPath
       clipPathUnits="userSpaceOnUse"
       id="clipath_lpe_path-effect1188-3-72"><path
         style="display:block;fill:#ee08d3;fill-opacity:1;stroke:#ee08d3;stroke-width:1.414;stroke-dasharray:none;stroke-opacity:1;stop-color:#000000"
         id="path2293"
         clip-path="none" /></clipPath><clipPath
       clipPathUnits="userSpaceOnUse"
       id="clipath_lpe_path-effect1188-3-72-6"><path
         style="display:block;fill:#ee08d3;fill-opacity:1;stroke:#ee08d3;stroke-width:1.414;stroke-dasharray:none;stroke-opacity:1;stop-color:#000000"
         id="path2293-3"
         clip-path="none" /><path
         id="lpe_path-effect1188-3-72-9"
         style="fill:#ee08d3;fill-opacity:1;stroke:#ee08d3;stroke-width:1.414;stroke-dasharray:none;stroke-opacity:1;stop-color:#000000"
         class="powerclip"
         d="m 93.916139,170.37428 h 70.658321 v 68.80399 H 93.916139 Z m 35.839141,14.18799 a 21.146576,20.838083 0 0 0 -21.55657,20.42599 21.146576,20.838083 0 0 0 20.72828,21.24219 21.146576,20.838083 0 0 0 21.55676,-20.42579 21.146576,20.838083 0 0 0 -20.72807,-21.24238" /></clipPath><clipPath
       clipPathUnits="userSpaceOnUse"
       id="clipath_lpe_path-effect1188-3-72-4"><path
         style="display:none;fill:#ee08d3;fill-opacity:1;stroke:#ee08d3;stroke-width:1.414;stroke-dasharray:none;stroke-opacity:1;stop-color:#000000"
         id="path2501"
         d="m 129.75568,184.56228 a 21.146576,20.838083 0 0 1 20.72807,21.24238 21.146576,20.838083 0 0 1 -21.55676,20.42579 21.146576,20.838083 0 0 1 -20.72828,-21.24219 21.146576,20.838083 0 0 1 21.55657,-20.42599"
         clip-path="none" /><path
         id="lpe_path-effect1188-3-72-4"
         style="fill:#ee08d3;fill-opacity:1;stroke:#ee08d3;stroke-width:1.414;stroke-dasharray:none;stroke-opacity:1;stop-color:#000000"
         class="powerclip"
         d="m 93.916139,170.37428 h 70.658321 v 68.80399 H 93.916139 Z m 35.839141,14.18799 a 21.146576,20.838083 0 0 0 -21.55657,20.42599 21.146576,20.838083 0 0 0 20.72828,21.24219 21.146576,20.838083 0 0 0 21.55676,-20.42579 21.146576,20.838083 0 0 0 -20.72807,-21.24238" /></clipPath><clipPath
       clipPathUnits="userSpaceOnUse"
       id="clipPath1184-0"><path
         style="display:block;fill:#ee08d3;fill-opacity:1;stroke:#ee08d3;stroke-width:1.414;stroke-dasharray:none;stroke-opacity:1;stop-color:#000000"
         id="path1186-4"
         clip-path="none" /></clipPath><clipPath
       clipPathUnits="userSpaceOnUse"
       id="clipath_lpe_path-effect1188-3-72-43"><path
         style="display:none;fill:#ee08d3;fill-opacity:1;stroke:#ee08d3;stroke-width:1.414;stroke-dasharray:none;stroke-opacity:1;stop-color:#000000"
         id="path2293-33"
         d="m 129.75568,184.56228 a 21.146576,20.838083 0 0 1 20.72807,21.24238 21.146576,20.838083 0 0 1 -21.55676,20.42579 21.146576,20.838083 0 0 1 -20.72828,-21.24219 21.146576,20.838083 0 0 1 21.55657,-20.42599"
         clip-path="none" /><path
         id="lpe_path-effect1188-3-72-8"
         style="fill:#ee08d3;fill-opacity:1;stroke:#ee08d3;stroke-width:1.414;stroke-dasharray:none;stroke-opacity:1;stop-color:#000000"
         class="powerclip"
         d="m 93.916139,170.37428 h 70.658321 v 68.80399 H 93.916139 Z m 35.839141,14.18799 a 21.146576,20.838083 0 0 0 -21.55657,20.42599 21.146576,20.838083 0 0 0 20.72828,21.24219 21.146576,20.838083 0 0 0 21.55676,-20.42579 21.146576,20.838083 0 0 0 -20.72807,-21.24238" /></clipPath><clipPath
       clipPathUnits="userSpaceOnUse"
       id="clipPath2927"><path
         style="display:none;fill:#ee08d3;fill-opacity:1;stroke:#ee08d3;stroke-width:1.414;stroke-dasharray:none;stroke-opacity:1;stop-color:#000000"
         id="path2923"
         d="m 129.75568,184.56228 a 21.146576,20.838083 0 0 1 20.72807,21.24238 21.146576,20.838083 0 0 1 -21.55676,20.42579 21.146576,20.838083 0 0 1 -20.72828,-21.24219 21.146576,20.838083 0 0 1 21.55657,-20.42599"
         clip-path="none" /></clipPath><clipPath
       clipPathUnits="userSpaceOnUse"
       id="clipath_lpe_path-effect1188-3-7-2"><path
         style="display:block;fill:#ee08d3;fill-opacity:1;stroke:#ee08d3;stroke-width:1.414;stroke-dasharray:none;stroke-opacity:1;stop-color:#000000"
         id="path2021-4"
         clip-path="none" /></clipPath><clipPath
       clipPathUnits="userSpaceOnUse"
       id="clipath_lpe_path-effect1188-3-7-6"><path
         style="display:none;fill:#ee08d3;fill-opacity:1;stroke:#ee08d3;stroke-width:1.414;stroke-dasharray:none;stroke-opacity:1;stop-color:#000000"
         id="path2021-2"
         d="m 129.75568,184.56228 a 21.146576,20.838083 0 0 1 20.72807,21.24238 21.146576,20.838083 0 0 1 -21.55676,20.42579 21.146576,20.838083 0 0 1 -20.72828,-21.24219 21.146576,20.838083 0 0 1 21.55657,-20.42599"
         clip-path="none" /><path
         id="lpe_path-effect1188-3-7-8"
         style="fill:#ee08d3;fill-opacity:1;stroke:#ee08d3;stroke-width:1.414;stroke-dasharray:none;stroke-opacity:1;stop-color:#000000"
         class="powerclip"
         d="m 93.916139,170.37428 h 70.658321 v 68.80399 H 93.916139 Z m 35.839141,14.18799 a 21.146576,20.838083 0 0 0 -21.55657,20.42599 21.146576,20.838083 0 0 0 20.72828,21.24219 21.146576,20.838083 0 0 0 21.55676,-20.42579 21.146576,20.838083 0 0 0 -20.72807,-21.24238" /></clipPath><clipPath
       clipPathUnits="userSpaceOnUse"
       id="clipath_lpe_path-effect1188-3-7-4"><path
         style="display:block;fill:#ee08d3;fill-opacity:1;stroke:#ee08d3;stroke-width:1.414;stroke-dasharray:none;stroke-opacity:1;stop-color:#000000"
         id="path3258"
         clip-path="none" /></clipPath><clipPath
       clipPathUnits="userSpaceOnUse"
       id="clipath_lpe_path-effect1188-3-7-2-6"><path
         style="display:none;fill:#ee08d3;fill-opacity:1;stroke:#ee08d3;stroke-width:1.414;stroke-dasharray:none;stroke-opacity:1;stop-color:#000000"
         id="path2021-4-6"
         d="m 129.75568,184.56228 a 21.146576,20.838083 0 0 1 20.72807,21.24238 21.146576,20.838083 0 0 1 -21.55676,20.42579 21.146576,20.838083 0 0 1 -20.72828,-21.24219 21.146576,20.838083 0 0 1 21.55657,-20.42599"
         clip-path="none" /><path
         id="lpe_path-effect1188-3-7-7-4"
         style="fill:#ee08d3;fill-opacity:1;stroke:#ee08d3;stroke-width:1.414;stroke-dasharray:none;stroke-opacity:1;stop-color:#000000"
         class="powerclip"
         d="m 93.916139,170.37428 h 70.658321 v 68.80399 H 93.916139 Z m 35.839141,14.18799 a 21.146576,20.838083 0 0 0 -21.55657,20.42599 21.146576,20.838083 0 0 0 20.72828,21.24219 21.146576,20.838083 0 0 0 21.55676,-20.42579 21.146576,20.838083 0 0 0 -20.72807,-21.24238" /></clipPath><clipPath
       clipPathUnits="userSpaceOnUse"
       id="clipath_lpe_path-effect1188-3-7-7-0"><path
         style="display:block;fill:#ee08d3;fill-opacity:1;stroke:#ee08d3;stroke-width:1.414;stroke-dasharray:none;stroke-opacity:1;stop-color:#000000"
         id="path3492"
         clip-path="none" /></clipPath><clipPath
       clipPathUnits="userSpaceOnUse"
       id="clipath_lpe_path-effect1188-3-72-4-3"><path
         style="display:none;fill:#ee08d3;fill-opacity:1;stroke:#ee08d3;stroke-width:1.414;stroke-dasharray:none;stroke-opacity:1;stop-color:#000000"
         id="path2501-6"
         d="m 129.75568,184.56228 a 21.146576,20.838083 0 0 1 20.72807,21.24238 21.146576,20.838083 0 0 1 -21.55676,20.42579 21.146576,20.838083 0 0 1 -20.72828,-21.24219 21.146576,20.838083 0 0 1 21.55657,-20.42599"
         clip-path="none" /><path
         id="lpe_path-effect1188-3-72-4-7"
         style="fill:#ee08d3;fill-opacity:1;stroke:#ee08d3;stroke-width:1.414;stroke-dasharray:none;stroke-opacity:1;stop-color:#000000"
         class="powerclip"
         d="m 93.916139,170.37428 h 70.658321 v 68.80399 H 93.916139 Z m 35.839141,14.18799 a 21.146576,20.838083 0 0 0 -21.55657,20.42599 21.146576,20.838083 0 0 0 20.72828,21.24219 21.146576,20.838083 0 0 0 21.55676,-20.42579 21.146576,20.838083 0 0 0 -20.72807,-21.24238" /></clipPath><clipPath
       clipPathUnits="userSpaceOnUse"
       id="clipath_lpe_path-effect1188-3-72-4-5"><path
         style="display:block;fill:#ee08d3;fill-opacity:1;stroke:#ee08d3;stroke-width:1.414;stroke-dasharray:none;stroke-opacity:1;stop-color:#000000"
         id="path7017"
         clip-path="none" /></clipPath><clipPath
       clipPathUnits="userSpaceOnUse"
       id="clipath_lpe_path-effect1188-3-72-4-7"><path
         style="display:none;fill:#ee08d3;fill-opacity:1;stroke:#ee08d3;stroke-width:1.414;stroke-dasharray:none;stroke-opacity:1;stop-color:#000000"
         id="path2501-5"
         d="m 129.75568,184.56228 a 21.146576,20.838083 0 0 1 20.72807,21.24238 21.146576,20.838083 0 0 1 -21.55676,20.42579 21.146576,20.838083 0 0 1 -20.72828,-21.24219 21.146576,20.838083 0 0 1 21.55657,-20.42599"
         clip-path="none" /><path
         id="lpe_path-effect1188-3-72-4-9"
         style="fill:#ee08d3;fill-opacity:1;stroke:#ee08d3;stroke-width:1.414;stroke-dasharray:none;stroke-opacity:1;stop-color:#000000"
         class="powerclip"
         d="m 93.916139,170.37428 h 70.658321 v 68.80399 H 93.916139 Z m 35.839141,14.18799 a 21.146576,20.838083 0 0 0 -21.55657,20.42599 21.146576,20.838083 0 0 0 20.72828,21.24219 21.146576,20.838083 0 0 0 21.55676,-20.42579 21.146576,20.838083 0 0 0 -20.72807,-21.24238" /></clipPath><clipPath
       clipPathUnits="userSpaceOnUse"
       id="clipath_lpe_path-effect1188-3-72-4-2"><path
         style="display:none;fill:#ee08d3;fill-opacity:1;stroke:#ee08d3;stroke-width:1.414;stroke-dasharray:none;stroke-opacity:1;stop-color:#000000"
         id="path7818"
         d="m 129.75568,184.56228 a 21.146576,20.838083 0 0 1 20.72807,21.24238 21.146576,20.838083 0 0 1 -21.55676,20.42579 21.146576,20.838083 0 0 1 -20.72828,-21.24219 21.146576,20.838083 0 0 1 21.55657,-20.42599"
         clip-path="none" /><path
         id="lpe_path-effect1188-3-72-4-2"
         style="fill:#ee08d3;fill-opacity:1;stroke:#ee08d3;stroke-width:1.414;stroke-dasharray:none;stroke-opacity:1;stop-color:#000000"
         class="powerclip"
         d="M 93.821997,170.28014 H 164.6686 v 68.99227 H 93.821997 Z m 35.933283,14.28213 a 21.146576,20.838083 0 0 0 -21.55657,20.42599 21.146576,20.838083 0 0 0 20.72828,21.24219 21.146576,20.838083 0 0 0 21.55676,-20.42579 21.146576,20.838083 0 0 0 -20.72807,-21.24238" /></clipPath></defs><g
     id="layer1"><rect
       style="fill:#000000;fill-opacity:1;stroke:none;stroke-width:1;stroke-linecap:round;stroke-opacity:1;stop-color:#000000"
       id="rect10786"
       width="159.33772"
       height="65.066559"
       x="14.541582"
       y="89.039436" /><path
       style="fill:#010c3b;fill-opacity:1;stroke:#2997eb;stroke-width:0.802285;stroke-dasharray:none;stroke-opacity:1;stop-color:#000000"
       id="path236-8-1-3-2"
       d="m 129.8337,175.68698 a 30.022045,29.094885 0 0 1 29.42788,29.65951 30.022045,29.094885 0 0 1 -30.60465,28.51908 30.022045,29.094885 0 0 1 -29.427909,-29.65949 30.022045,29.094885 0 0 1 30.604629,-28.5191"
       clip-path="url(#clipath_lpe_path-effect1188-3-72-4-2)"
       transform="matrix(0.75992954,0,0,0.7707346,-50.368146,-35.580941)" /><path
       style="fill:#2997eb;fill-opacity:1;stroke:#2997eb;stroke-width:1.414;stroke-dasharray:none;stroke-opacity:1;stop-color:#000000"
       id="path236-3-1-7-8-6"
       d="M 48.257422,101.94461 A 20.607021,20.306147 0 0 1 68.456615,122.64474 20.607021,20.306147 0 0 1 47.449874,142.54911 20.607021,20.306147 0 0 1 27.250481,121.84917 20.607021,20.306147 0 0 1 48.257031,101.9446" /><path
       style="fill:#010c3b;fill-opacity:1;stroke:none;stroke-width:0.765001;stroke-dasharray:none;stop-color:#000000"
       d="m 48.42873,110.13104 c -10.46902,0.081 -13.67938,5.32435 -20.08826,5.67215 -1.45306,4.56794 -1.4961,9.60116 0.36518,14.06089 7.76733,0.2221 12.09163,-4.65425 19.70206,-4.80267 8.42488,-0.1643 10.57587,3.27152 18.85155,4.62824 1.20933,-3.15038 2.18061,-9.1394 -0.0978,-14.62862 -9.62077,-1.13992 -9.91981,-4.92999 -18.7328,-4.92999 z"
       id="path12347-4-5-9-2-1-2" /><path
       style="fill:#2997eb;fill-opacity:1;stroke:none;stroke-width:0.413999;stroke-dasharray:none;stop-color:#000000"
       id="path777-50-61-0-1"
       d="m 36.115452,120.69482 a 1.7543161,1.6694894 0 0 1 1.719636,1.69993 1.7543161,1.6694894 0 0 1 -1.784277,1.63848 1.7543161,1.6694894 0 0 1 -1.723831,-1.69607 1.7543161,1.6694894 0 0 1 1.780225,-1.64247" /><path
       style="fill:none;stroke:#2997eb;stroke-width:1;stroke-linecap:round;stroke-linejoin:miter;stroke-dasharray:none;stroke-opacity:1"
       d="m 32.2082,122.96709 c 0.13004,-3.53376 3.87548,-3.72933 3.87548,-3.72933"
       id="path808-3-5-8-2" /><path
       id="path924-5-6-9-8-7"
       style="fill:none;stroke:#2997eb;stroke-width:1;stroke-linecap:round;stroke-linejoin:miter;stroke-dasharray:none;stroke-opacity:1"
       d="m 34.01491,125.44857 c 1.22881,-1.61573 1.39308,0.26284 2.51086,0.12765 0.7894,-0.0955 0.60679,-0.94394 1.6682,-0.87409 0.71098,0.0468 0.50098,1.08348 1.4099,0.54712 m -11.13339,0.38009 c 1.22881,-1.61574 1.39308,0.26285 2.51086,0.12765 0.78939,-0.0955 0.60679,-0.94394 1.66819,-0.87408 0.71099,0.0468 0.50099,1.08347 1.40991,0.54712" /><path
       style="fill:none;stroke:#2997eb;stroke-width:1;stroke-linecap:round;stroke-linejoin:miter;stroke-dasharray:none;stroke-opacity:1"
       d="m 46.33209,116.28023 c 2.38076,-2.79095 5.39728,-0.18232 5.39728,-0.18232"
       id="path723-7-7-0-9-0-0" /><path
       style="fill:#2997eb;fill-opacity:1;stroke:none;stroke-width:0.314;stop-color:#000000"
       id="path777-3-6-9-6-0-9-9"
       d="m 51.444183,111.46849 a 1.6674809,1.5501363 0 0 1 1.634518,1.5784 1.6674809,1.5501363 0 0 1 -1.695959,1.52135 1.6674809,1.5501363 0 0 1 -1.638505,-1.57482 1.6674809,1.5501363 0 0 1 1.692107,-1.52505" /><path
       style="fill:#2997eb;fill-opacity:1;stroke:none;stroke-width:0.314002;stop-color:#000000"
       id="path777-3-1-3-9-6-3"
       d="m 43.744385,117.98004 a 2.1737268,2.0261812 0 0 1 2.130755,2.06313 2.1737268,2.0261812 0 0 1 -2.210851,1.98855 2.1737268,2.0261812 0 0 1 -2.135953,-2.05845 2.1737268,2.0261812 0 0 1 2.205829,-1.99339" /><path
       style="fill:#2997eb;fill-opacity:1;stroke:none;stroke-width:0.314002;stop-color:#000000"
       id="path777-3-1-8-2-1-3-6"
       d="m 52.715092,117.6271 a 2.1737268,2.0261812 0 0 1 2.130755,2.06312 2.1737268,2.0261812 0 0 1 -2.210851,1.98855 2.1737268,2.0261812 0 0 1 -2.135953,-2.05844 2.1737268,2.0261812 0 0 1 2.205829,-1.99339" /><path
       style="fill:none;stroke:#2997eb;stroke-width:1;stroke-linecap:round;stroke-linejoin:miter;stroke-dasharray:none;stroke-opacity:1"
       d="m 46.0312,117.8872 c 0,0 2.88365,-0.57153 2.59653,2.34458"
       id="path4675-0-7-8-0" /><path
       style="fill:none;stroke:#2997eb;stroke-width:1;stroke-linecap:round;stroke-linejoin:miter;stroke-dasharray:none;stroke-opacity:1"
       d="m 58.31411,121.55938 c 1.58875,-1.91223 3.21513,-0.70699 3.21513,-0.70699"
       id="path723-7-2-1-1-6-6" /><path
       style="fill:#2997eb;fill-opacity:1;stroke:none;stroke-width:0.314;stop-color:#000000"
       id="path777-3-6-3-5-1-1-2"
       d="m 63.943691,116.61481 a 1.7272272,1.6008872 0 0 1 1.693083,1.63008 1.7272272,1.6008872 0 0 1 -1.756726,1.57115 1.7272272,1.6008872 0 0 1 -1.697212,-1.62638 1.7272272,1.6008872 0 0 1 1.752735,-1.57498" /><path
       style="fill:none;stroke:#2997eb;stroke-width:1;stroke-linecap:round;stroke-linejoin:miter;stroke-dasharray:none;stroke-opacity:1"
       d="m 63.6119,121.2253 c 0,0 0.1717,1.92538 2.70941,1.03384"
       id="path806-0-7-5-5-1-6" /><path
       style="fill:none;stroke:#2997eb;stroke-width:1;stroke-linecap:round;stroke-linejoin:miter;stroke-dasharray:none;stroke-opacity:1"
       d="m 61.43574,123.10039 c 0.5464,0.42476 2.28761,0.034 2.53328,4.50412"
       id="path4675-2-5-4-9-5-1" /><path
       style="fill:none;stroke:#2997eb;stroke-width:1;stroke-linecap:round;stroke-linejoin:miter;stroke-dasharray:none;stroke-opacity:1"
       d="m 57.66586,124.95041 c 0.54217,0.34342 1.84061,1.6134 3.21871,-0.8553"
       id="path8417-9-7-7-9-8" /><g
       aria-label="TSM"
       id="text18909-65-7-8-7"
       style="font-size:7.76111px;fill:#010c3b;stroke-width:0.264583"><path
         d="m 39.338891,129.49559 h 5.214496 v 1.10278 h -1.875855 v 4.5551 h -1.458997 v -4.5551 h -1.879644 z"
         style="-inkscape-font-specification:'sans-serif Bold'"
         id="path11194" /><path
         d="m 49.244917,129.6737 v 1.19752 q -0.466121,-0.20843 -0.909505,-0.31454 -0.443384,-0.10611 -0.837503,-0.10611 -0.522965,0 -0.773079,0.14401 -0.250114,0.144 -0.250114,0.44717 0,0.22738 0.166743,0.35622 0.170532,0.12506 0.613916,0.21601 l 0.621495,0.12506 q 0.943611,0.18948 1.34152,0.57602 0.397908,0.38654 0.397908,1.09898 0,0.93604 -0.557072,1.39458 -0.553282,0.45475 -1.693953,0.45475 -0.538124,0 -1.080037,-0.10232 -0.541914,-0.10232 -1.083827,-0.30317 v -1.23162 q 0.541913,0.28801 1.045931,0.43581 0.507807,0.144 0.977718,0.144 0.47749,0 0.731393,-0.15916 0.253904,-0.15916 0.253904,-0.45475 0,-0.26528 -0.174322,-0.40928 -0.170532,-0.14401 -0.685918,-0.25769 l -0.564651,-0.12506 q -0.848872,-0.1819 -1.242991,-0.57981 -0.390329,-0.39791 -0.390329,-1.07246 0,-0.84508 0.545703,-1.29983 0.545703,-0.45476 1.568896,-0.45476 0.466122,0 0.95877,0.072 0.492649,0.0682 1.019404,0.20842 z"
         style="-inkscape-font-specification:'sans-serif Bold'"
         id="path11196" /><path
         d="m 50.897184,129.49559 h 1.856906 l 1.288465,3.0279 1.296045,-3.0279 h 1.853117 v 5.65788 h -1.379416 v -4.13825 l -1.303624,3.05064 h -0.924664 l -1.303624,-3.05064 v 4.13825 h -1.383205 z"
         style="-inkscape-font-specification:'sans-serif Bold'"
         id="path11198" /></g><g
       aria-label="TRIATHLON SAINT-MAUR"
       id="text10730"
       style="font-size:12.7px;stroke-width:0.264583"><path
         d="m 76.1251,110.10443 h 8.532812 v 1.80454 h -3.06958 v 7.45381 h -2.387451 v -7.45381 H 76.1251 Z"
         style="-inkscape-font-specification:'sans-serif Bold';fill:#2997eb"
         id="path11220" /><path
         d="m 89.283987,114.2096 q 0.750341,0 1.072802,-0.27905 0.328662,-0.27905 0.328662,-0.91777 0,-0.63252 -0.328662,-0.90537 -0.322461,-0.27285 -1.072802,-0.27285 h -1.00459 v 2.37504 z m -1.00459,1.64952 v 3.50366 h -2.387451 v -9.25835 h 3.646289 q 1.829345,0 2.678906,0.61391 0.855762,0.61392 0.855762,1.94097 0,0.91777 -0.446485,1.50689 -0.440283,0.58911 -1.333252,0.86816 0.489893,0.11162 0.874366,0.5085 0.390673,0.39067 0.787548,1.19062 l 1.296045,2.6293 h -2.54248 l -1.128613,-2.30064 q -0.341065,-0.69453 -0.694532,-0.94878 -0.347265,-0.25424 -0.930175,-0.25424 z"
         style="-inkscape-font-specification:'sans-serif Bold';fill:#2997eb"
         id="path11222" /><path
         d="m 95.671194,110.10443 h 2.387451 v 9.25835 h -2.387451 z"
         style="-inkscape-font-specification:'sans-serif Bold';fill:#2997eb"
         id="path11224" /><path
         d="m 106.01475,117.67606 h -3.73311 l -0.58911,1.68672 h -2.399852 l 3.429252,-9.25835 h 2.84633 l 3.42925,9.25835 h -2.39985 z m -3.1378,-1.71773 h 2.53628 l -1.26503,-3.68349 z"
         style="-inkscape-font-specification:'sans-serif Bold';fill:#2997eb"
         id="path11226" /><path
         d="m 108.13555,110.10443 h 8.53281 v 1.80454 h -3.06958 v 7.45381 h -2.38745 v -7.45381 h -3.07578 z"
         style="-inkscape-font-specification:'sans-serif Bold';fill:#2997eb"
         id="path11228" /><path
         d="m 117.90239,110.10443 h 2.38745 v 3.52846 h 3.52227 v -3.52846 h 2.38745 v 9.25835 h -2.38745 v -3.92534 h -3.52227 v 3.92534 h -2.38745 z"
         style="-inkscape-font-specification:'sans-serif Bold';fill:#2997eb"
         id="path11230" /><path
         d="m 128.5312,110.10443 h 2.38746 v 7.45381 h 4.19199 v 1.80454 h -6.57945 z"
         style="-inkscape-font-specification:'sans-serif Bold';fill:#2997eb"
         id="path11232" /><path
         d="m 140.40025,111.66712 q -1.09141,0 -1.69292,0.80616 -0.60152,0.80615 -0.60152,2.26962 0,1.45728 0.60152,2.26343 0.60151,0.80615 1.69292,0.80615 1.0976,0 1.69912,-0.80615 0.60151,-0.80615 0.60151,-2.26343 0,-1.46347 -0.60151,-2.26962 -0.60152,-0.80616 -1.69912,-0.80616 z m 0,-1.73012 q 2.23242,0 3.49746,1.27744 1.26504,1.27744 1.26504,3.52846 0,2.24483 -1.26504,3.52227 -1.26504,1.27744 -3.49746,1.27744 -2.22622,0 -3.49746,-1.27744 -1.26504,-1.27744 -1.26504,-3.52227 0,-2.25102 1.26504,-3.52846 1.27124,-1.27744 3.49746,-1.27744 z"
         style="-inkscape-font-specification:'sans-serif Bold';fill:#2997eb"
         id="path11234" /><path
         d="m 146.96729,110.10443 h 2.6665 l 3.36724,6.35 v -6.35 h 2.26343 v 9.25835 h -2.66651 l -3.36723,-6.35 v 6.35 h -2.26343 z"
         style="-inkscape-font-specification:'sans-serif Bold';fill:#2997eb"
         id="path11236" /><path
         d="m 79.572951,126.27088 v 1.95957 q -0.762744,-0.34106 -1.488281,-0.51469 -0.725537,-0.17364 -1.370459,-0.17364 -0.855762,0 -1.265039,0.23565 -0.409277,0.23564 -0.409277,0.73174 0,0.37207 0.272851,0.58291 0.279053,0.20463 1.00459,0.35346 l 1.016992,0.20464 q 1.544092,0.31006 2.195215,0.94258 0.651123,0.63252 0.651123,1.79834 0,1.53169 -0.911572,2.28203 -0.905371,0.74414 -2.771924,0.74414 -0.880566,0 -1.767334,-0.16743 -0.886767,-0.16743 -1.773535,-0.49609 v -2.01538 q 0.886768,0.47128 1.711523,0.71313 0.830957,0.23564 1.599903,0.23564 0.781347,0 1.196826,-0.26044 0.415478,-0.26045 0.415478,-0.74415 0,-0.43408 -0.285254,-0.66972 -0.279052,-0.23565 -1.122412,-0.42168 l -0.923974,-0.20464 q -1.389063,-0.29766 -2.033985,-0.94878 -0.63872,-0.65112 -0.63872,-1.75493 0,-1.38286 0.892969,-2.127 0.892968,-0.74414 2.567285,-0.74414 0.762744,0 1.568896,0.11782 0.806152,0.11162 1.668115,0.34106 z"
         style="-inkscape-font-specification:'sans-serif Bold';fill:#2997eb"
         id="path11238" /><path
         d="m 87.894924,133.55106 h -3.733105 l -0.589112,1.68672 h -2.399853 l 3.429248,-9.25835 h 2.846338 l 3.429248,9.25835 h -2.399854 z m -3.137793,-1.71773 h 2.536279 l -1.265039,-3.68349 z"
         style="-inkscape-font-specification:'sans-serif Bold';fill:#2997eb"
         id="path11240" /><path
         d="m 92.10552,125.97943 h 2.387451 v 9.25835 H 92.10552 Z"
         style="-inkscape-font-specification:'sans-serif Bold';fill:#2997eb"
         id="path11242" /><path
         d="m 96.830812,125.97943 h 2.666504 l 3.367234,6.35 v -6.35 h 2.26343 v 9.25835 h -2.6665 l -3.36724,-6.35 v 6.35 h -2.263428 z"
         style="-inkscape-font-specification:'sans-serif Bold';fill:#2997eb"
         id="path11244" /><path
         d="m 106.35581,125.97943 h 8.53281 v 1.80454 h -3.06958 v 7.45381 h -2.38745 v -7.45381 h -3.07578 z"
         style="-inkscape-font-specification:'sans-serif Bold';fill:#2997eb"
         id="path11246" /><path
         d="m 113.77861,130.67992 h 3.89434 v 1.80454 h -3.89434 z"
         style="-inkscape-font-specification:'sans-serif Bold';fill:#2997eb"
         id="path11248" /><path
         d="m 119.5271,125.97943 h 3.03858 l 2.10839,4.95473 2.1208,-4.95473 h 3.03238 v 9.25835 h -2.25723 v -6.77168 l -2.1332,4.99194 h -1.51309 l -2.1332,-4.99194 v 6.77168 h -2.26343 z"
         style="-inkscape-font-specification:'sans-serif Bold';fill:#2997eb"
         id="path11250" /><path
         d="m 137.78335,133.55106 h -3.7331 l -0.58912,1.68672 h -2.39985 l 3.42925,-9.25835 h 2.84634 l 3.42925,9.25835 h -2.39986 z m -3.13779,-1.71773 h 2.53628 l -1.26504,-3.68349 z"
         style="-inkscape-font-specification:'sans-serif Bold';fill:#2997eb"
         id="path11252" /><path
         d="m 141.60328,125.97943 h 2.38745 v 5.55005 q 0,1.14721 0.37207,1.64331 0.37827,0.48989 1.22783,0.48989 0.85576,0 1.22783,-0.48989 0.37827,-0.4961 0.37827,-1.64331 v -5.55005 h 2.38745 v 5.55005 q 0,1.96577 -0.98598,2.92695 -0.98599,0.96118 -3.00757,0.96118 -2.01538,0 -3.00137,-0.96118 -0.98598,-0.96118 -0.98598,-2.92695 z"
         style="-inkscape-font-specification:'sans-serif Bold';fill:#2997eb"
         id="path11254" /><path
         d="m 155.30786,130.0846 q 0.75035,0 1.07281,-0.27905 0.32866,-0.27905 0.32866,-0.91777 0,-0.63252 -0.32866,-0.90537 -0.32246,-0.27286 -1.07281,-0.27286 h -1.00459 v 2.37505 z m -1.00459,1.64952 v 3.50366 h -2.38745 v -9.25835 h 3.64629 q 1.82935,0 2.67891,0.61391 0.85576,0.61392 0.85576,1.94097 0,0.91777 -0.44648,1.50689 -0.44029,0.58911 -1.33326,0.86816 0.4899,0.11162 0.87437,0.5085 0.39067,0.39067 0.78755,1.19062 l 1.29604,2.6293 h -2.54248 l -1.12861,-2.30064 q -0.34107,-0.69453 -0.69453,-0.94878 -0.34727,-0.25424 -0.93018,-0.25424 z"
         style="-inkscape-font-specification:'sans-serif Bold';fill:#2997eb"
         id="path11256" /></g></g></svg>
