<?xml version="1.0" encoding="UTF-8" standalone="no"?>
<!-- Created with Inkscape (http://www.inkscape.org/) -->

<svg
   width="135.42999mm"
   height="56.397041mm"
   viewBox="0 0 135.42999 56.397041"
   version="1.1"
   id="svg5"
   xml:space="preserve"
   sodipodi:docname="TSM-Logo-bandeau-inscriptionSVG-2.svg"
   inkscape:version="1.3.1 (9b9bdc1480, 2023-11-25, custom)"
   xmlns:inkscape="http://www.inkscape.org/namespaces/inkscape"
   xmlns:sodipodi="http://sodipodi.sourceforge.net/DTD/sodipodi-0.dtd"
   xmlns="http://www.w3.org/2000/svg"
   xmlns:svg="http://www.w3.org/2000/svg"><sodipodi:namedview
     id="namedview1226"
     pagecolor="#ffffff"
     bordercolor="#666666"
     borderopacity="1.0"
     inkscape:showpageshadow="2"
     inkscape:pageopacity="0.0"
     inkscape:pagecheckerboard="0"
     inkscape:deskcolor="#d1d1d1"
     inkscape:document-units="mm"
     showgrid="false"
     inkscape:zoom="0.914906"
     inkscape:cx="304.94936"
     inkscape:cy="280.90317"
     inkscape:window-width="1850"
     inkscape:window-height="1016"
     inkscape:window-x="0"
     inkscape:window-y="0"
     inkscape:window-maximized="1"
     inkscape:current-layer="text10730" /><defs
     id="defs2"><clipPath
       clipPathUnits="userSpaceOnUse"
       id="clipPath1184"><path
         style="display:block;fill:#ee08d3;fill-opacity:1;stroke:#ee08d3;stroke-width:1.414;stroke-dasharray:none;stroke-opacity:1;stop-color:#000000"
         id="path1186"
         clip-path="none"
         d="" /></clipPath><clipPath
       clipPathUnits="userSpaceOnUse"
       id="clipPath1184-1"><path
         style="display:none;fill:#ee08d3;fill-opacity:1;stroke:#ee08d3;stroke-width:1.414;stroke-dasharray:none;stroke-opacity:1;stop-color:#000000"
         id="path1186-2"
         d="m 129.75568,184.56228 a 21.146576,20.838083 0 0 1 20.72807,21.24238 21.146576,20.838083 0 0 1 -21.55676,20.42579 21.146576,20.838083 0 0 1 -20.72828,-21.24219 21.146576,20.838083 0 0 1 21.55657,-20.42599"
         clip-path="none" /><path
         id="lpe_path-effect1188-9"
         style="fill:#ee08d3;fill-opacity:1;stroke:#ee08d3;stroke-width:1.414;stroke-dasharray:none;stroke-opacity:1;stop-color:#000000"
         class="powerclip"
         d="m 93.916139,170.37428 h 70.658321 v 68.80399 H 93.916139 Z m 35.839141,14.18799 a 21.146576,20.838083 0 0 0 -21.55657,20.42599 21.146576,20.838083 0 0 0 20.72828,21.24219 21.146576,20.838083 0 0 0 21.55676,-20.42579 21.146576,20.838083 0 0 0 -20.72807,-21.24238" /></clipPath><clipPath
       clipPathUnits="userSpaceOnUse"
       id="clipath_lpe_path-effect1188-3"><path
         style="display:block;fill:#ee08d3;fill-opacity:1;stroke:#ee08d3;stroke-width:1.414;stroke-dasharray:none;stroke-opacity:1;stop-color:#000000"
         id="path1813"
         clip-path="none"
         d="" /></clipPath><clipPath
       clipPathUnits="userSpaceOnUse"
       id="clipath_lpe_path-effect1188-3-2"><path
         style="display:none;fill:#ee08d3;fill-opacity:1;stroke:#ee08d3;stroke-width:1.414;stroke-dasharray:none;stroke-opacity:1;stop-color:#000000"
         id="path1813-5"
         d="m 129.75568,184.56228 a 21.146576,20.838083 0 0 1 20.72807,21.24238 21.146576,20.838083 0 0 1 -21.55676,20.42579 21.146576,20.838083 0 0 1 -20.72828,-21.24219 21.146576,20.838083 0 0 1 21.55657,-20.42599"
         clip-path="none" /><path
         id="lpe_path-effect1188-3-4"
         style="fill:#ee08d3;fill-opacity:1;stroke:#ee08d3;stroke-width:1.414;stroke-dasharray:none;stroke-opacity:1;stop-color:#000000"
         class="powerclip"
         d="m 93.916139,170.37428 h 70.658321 v 68.80399 H 93.916139 Z m 35.839141,14.18799 a 21.146576,20.838083 0 0 0 -21.55657,20.42599 21.146576,20.838083 0 0 0 20.72828,21.24219 21.146576,20.838083 0 0 0 21.55676,-20.42579 21.146576,20.838083 0 0 0 -20.72807,-21.24238" /></clipPath><clipPath
       clipPathUnits="userSpaceOnUse"
       id="clipath_lpe_path-effect1188-3-7"><path
         style="display:block;fill:#ee08d3;fill-opacity:1;stroke:#ee08d3;stroke-width:1.414;stroke-dasharray:none;stroke-opacity:1;stop-color:#000000"
         id="path2021"
         clip-path="none"
         d="" /></clipPath><clipPath
       clipPathUnits="userSpaceOnUse"
       id="clipath_lpe_path-effect1188-3-8"><path
         style="display:none;fill:#ee08d3;fill-opacity:1;stroke:#ee08d3;stroke-width:1.414;stroke-dasharray:none;stroke-opacity:1;stop-color:#000000"
         id="path1813-7"
         d="m 129.75568,184.56228 a 21.146576,20.838083 0 0 1 20.72807,21.24238 21.146576,20.838083 0 0 1 -21.55676,20.42579 21.146576,20.838083 0 0 1 -20.72828,-21.24219 21.146576,20.838083 0 0 1 21.55657,-20.42599"
         clip-path="none" /><path
         id="lpe_path-effect1188-3-1"
         style="fill:#ee08d3;fill-opacity:1;stroke:#ee08d3;stroke-width:1.414;stroke-dasharray:none;stroke-opacity:1;stop-color:#000000"
         class="powerclip"
         d="m 93.916139,170.37428 h 70.658321 v 68.80399 H 93.916139 Z m 35.839141,14.18799 a 21.146576,20.838083 0 0 0 -21.55657,20.42599 21.146576,20.838083 0 0 0 20.72828,21.24219 21.146576,20.838083 0 0 0 21.55676,-20.42579 21.146576,20.838083 0 0 0 -20.72807,-21.24238" /></clipPath><clipPath
       clipPathUnits="userSpaceOnUse"
       id="clipath_lpe_path-effect1188-3-72"><path
         style="display:block;fill:#ee08d3;fill-opacity:1;stroke:#ee08d3;stroke-width:1.414;stroke-dasharray:none;stroke-opacity:1;stop-color:#000000"
         id="path2293"
         clip-path="none"
         d="" /></clipPath><clipPath
       clipPathUnits="userSpaceOnUse"
       id="clipath_lpe_path-effect1188-3-72-6"><path
         style="display:block;fill:#ee08d3;fill-opacity:1;stroke:#ee08d3;stroke-width:1.414;stroke-dasharray:none;stroke-opacity:1;stop-color:#000000"
         id="path2293-3"
         clip-path="none"
         d="" /><path
         id="lpe_path-effect1188-3-72-9"
         style="fill:#ee08d3;fill-opacity:1;stroke:#ee08d3;stroke-width:1.414;stroke-dasharray:none;stroke-opacity:1;stop-color:#000000"
         class="powerclip"
         d="m 93.916139,170.37428 h 70.658321 v 68.80399 H 93.916139 Z m 35.839141,14.18799 a 21.146576,20.838083 0 0 0 -21.55657,20.42599 21.146576,20.838083 0 0 0 20.72828,21.24219 21.146576,20.838083 0 0 0 21.55676,-20.42579 21.146576,20.838083 0 0 0 -20.72807,-21.24238" /></clipPath><clipPath
       clipPathUnits="userSpaceOnUse"
       id="clipath_lpe_path-effect1188-3-72-4"><path
         style="display:none;fill:#ee08d3;fill-opacity:1;stroke:#ee08d3;stroke-width:1.414;stroke-dasharray:none;stroke-opacity:1;stop-color:#000000"
         id="path2501"
         d="m 129.75568,184.56228 a 21.146576,20.838083 0 0 1 20.72807,21.24238 21.146576,20.838083 0 0 1 -21.55676,20.42579 21.146576,20.838083 0 0 1 -20.72828,-21.24219 21.146576,20.838083 0 0 1 21.55657,-20.42599"
         clip-path="none" /><path
         id="lpe_path-effect1188-3-72-4"
         style="fill:#ee08d3;fill-opacity:1;stroke:#ee08d3;stroke-width:1.414;stroke-dasharray:none;stroke-opacity:1;stop-color:#000000"
         class="powerclip"
         d="m 93.916139,170.37428 h 70.658321 v 68.80399 H 93.916139 Z m 35.839141,14.18799 a 21.146576,20.838083 0 0 0 -21.55657,20.42599 21.146576,20.838083 0 0 0 20.72828,21.24219 21.146576,20.838083 0 0 0 21.55676,-20.42579 21.146576,20.838083 0 0 0 -20.72807,-21.24238" /></clipPath><clipPath
       clipPathUnits="userSpaceOnUse"
       id="clipPath1184-0"><path
         style="display:block;fill:#ee08d3;fill-opacity:1;stroke:#ee08d3;stroke-width:1.414;stroke-dasharray:none;stroke-opacity:1;stop-color:#000000"
         id="path1186-4"
         clip-path="none"
         d="" /></clipPath><clipPath
       clipPathUnits="userSpaceOnUse"
       id="clipath_lpe_path-effect1188-3-72-43"><path
         style="display:none;fill:#ee08d3;fill-opacity:1;stroke:#ee08d3;stroke-width:1.414;stroke-dasharray:none;stroke-opacity:1;stop-color:#000000"
         id="path2293-33"
         d="m 129.75568,184.56228 a 21.146576,20.838083 0 0 1 20.72807,21.24238 21.146576,20.838083 0 0 1 -21.55676,20.42579 21.146576,20.838083 0 0 1 -20.72828,-21.24219 21.146576,20.838083 0 0 1 21.55657,-20.42599"
         clip-path="none" /><path
         id="lpe_path-effect1188-3-72-8"
         style="fill:#ee08d3;fill-opacity:1;stroke:#ee08d3;stroke-width:1.414;stroke-dasharray:none;stroke-opacity:1;stop-color:#000000"
         class="powerclip"
         d="m 93.916139,170.37428 h 70.658321 v 68.80399 H 93.916139 Z m 35.839141,14.18799 a 21.146576,20.838083 0 0 0 -21.55657,20.42599 21.146576,20.838083 0 0 0 20.72828,21.24219 21.146576,20.838083 0 0 0 21.55676,-20.42579 21.146576,20.838083 0 0 0 -20.72807,-21.24238" /></clipPath><clipPath
       clipPathUnits="userSpaceOnUse"
       id="clipPath2927"><path
         style="display:none;fill:#ee08d3;fill-opacity:1;stroke:#ee08d3;stroke-width:1.414;stroke-dasharray:none;stroke-opacity:1;stop-color:#000000"
         id="path2923"
         d="m 129.75568,184.56228 a 21.146576,20.838083 0 0 1 20.72807,21.24238 21.146576,20.838083 0 0 1 -21.55676,20.42579 21.146576,20.838083 0 0 1 -20.72828,-21.24219 21.146576,20.838083 0 0 1 21.55657,-20.42599"
         clip-path="none" /></clipPath><clipPath
       clipPathUnits="userSpaceOnUse"
       id="clipath_lpe_path-effect1188-3-7-2"><path
         style="display:block;fill:#ee08d3;fill-opacity:1;stroke:#ee08d3;stroke-width:1.414;stroke-dasharray:none;stroke-opacity:1;stop-color:#000000"
         id="path2021-4"
         clip-path="none"
         d="" /></clipPath><clipPath
       clipPathUnits="userSpaceOnUse"
       id="clipath_lpe_path-effect1188-3-7-6"><path
         style="display:none;fill:#ee08d3;fill-opacity:1;stroke:#ee08d3;stroke-width:1.414;stroke-dasharray:none;stroke-opacity:1;stop-color:#000000"
         id="path2021-2"
         d="m 129.75568,184.56228 a 21.146576,20.838083 0 0 1 20.72807,21.24238 21.146576,20.838083 0 0 1 -21.55676,20.42579 21.146576,20.838083 0 0 1 -20.72828,-21.24219 21.146576,20.838083 0 0 1 21.55657,-20.42599"
         clip-path="none" /><path
         id="lpe_path-effect1188-3-7-8"
         style="fill:#ee08d3;fill-opacity:1;stroke:#ee08d3;stroke-width:1.414;stroke-dasharray:none;stroke-opacity:1;stop-color:#000000"
         class="powerclip"
         d="m 93.916139,170.37428 h 70.658321 v 68.80399 H 93.916139 Z m 35.839141,14.18799 a 21.146576,20.838083 0 0 0 -21.55657,20.42599 21.146576,20.838083 0 0 0 20.72828,21.24219 21.146576,20.838083 0 0 0 21.55676,-20.42579 21.146576,20.838083 0 0 0 -20.72807,-21.24238" /></clipPath><clipPath
       clipPathUnits="userSpaceOnUse"
       id="clipath_lpe_path-effect1188-3-7-4"><path
         style="display:block;fill:#ee08d3;fill-opacity:1;stroke:#ee08d3;stroke-width:1.414;stroke-dasharray:none;stroke-opacity:1;stop-color:#000000"
         id="path3258"
         clip-path="none"
         d="" /></clipPath><clipPath
       clipPathUnits="userSpaceOnUse"
       id="clipath_lpe_path-effect1188-3-7-2-6"><path
         style="display:none;fill:#ee08d3;fill-opacity:1;stroke:#ee08d3;stroke-width:1.414;stroke-dasharray:none;stroke-opacity:1;stop-color:#000000"
         id="path2021-4-6"
         d="m 129.75568,184.56228 a 21.146576,20.838083 0 0 1 20.72807,21.24238 21.146576,20.838083 0 0 1 -21.55676,20.42579 21.146576,20.838083 0 0 1 -20.72828,-21.24219 21.146576,20.838083 0 0 1 21.55657,-20.42599"
         clip-path="none" /><path
         id="lpe_path-effect1188-3-7-7-4"
         style="fill:#ee08d3;fill-opacity:1;stroke:#ee08d3;stroke-width:1.414;stroke-dasharray:none;stroke-opacity:1;stop-color:#000000"
         class="powerclip"
         d="m 93.916139,170.37428 h 70.658321 v 68.80399 H 93.916139 Z m 35.839141,14.18799 a 21.146576,20.838083 0 0 0 -21.55657,20.42599 21.146576,20.838083 0 0 0 20.72828,21.24219 21.146576,20.838083 0 0 0 21.55676,-20.42579 21.146576,20.838083 0 0 0 -20.72807,-21.24238" /></clipPath><clipPath
       clipPathUnits="userSpaceOnUse"
       id="clipath_lpe_path-effect1188-3-7-7-0"><path
         style="display:block;fill:#ee08d3;fill-opacity:1;stroke:#ee08d3;stroke-width:1.414;stroke-dasharray:none;stroke-opacity:1;stop-color:#000000"
         id="path3492"
         clip-path="none"
         d="" /></clipPath><clipPath
       clipPathUnits="userSpaceOnUse"
       id="clipath_lpe_path-effect1188-3-72-4-3"><path
         style="display:none;fill:#ee08d3;fill-opacity:1;stroke:#ee08d3;stroke-width:1.414;stroke-dasharray:none;stroke-opacity:1;stop-color:#000000"
         id="path2501-6"
         d="m 129.75568,184.56228 a 21.146576,20.838083 0 0 1 20.72807,21.24238 21.146576,20.838083 0 0 1 -21.55676,20.42579 21.146576,20.838083 0 0 1 -20.72828,-21.24219 21.146576,20.838083 0 0 1 21.55657,-20.42599"
         clip-path="none" /><path
         id="lpe_path-effect1188-3-72-4-7"
         style="fill:#ee08d3;fill-opacity:1;stroke:#ee08d3;stroke-width:1.414;stroke-dasharray:none;stroke-opacity:1;stop-color:#000000"
         class="powerclip"
         d="m 93.916139,170.37428 h 70.658321 v 68.80399 H 93.916139 Z m 35.839141,14.18799 a 21.146576,20.838083 0 0 0 -21.55657,20.42599 21.146576,20.838083 0 0 0 20.72828,21.24219 21.146576,20.838083 0 0 0 21.55676,-20.42579 21.146576,20.838083 0 0 0 -20.72807,-21.24238" /></clipPath><clipPath
       clipPathUnits="userSpaceOnUse"
       id="clipath_lpe_path-effect1188-3-72-4-5"><path
         style="display:block;fill:#ee08d3;fill-opacity:1;stroke:#ee08d3;stroke-width:1.414;stroke-dasharray:none;stroke-opacity:1;stop-color:#000000"
         id="path7017"
         clip-path="none"
         d="" /></clipPath><clipPath
       clipPathUnits="userSpaceOnUse"
       id="clipath_lpe_path-effect1188-3-72-4-7"><path
         style="display:none;fill:#ee08d3;fill-opacity:1;stroke:#ee08d3;stroke-width:1.414;stroke-dasharray:none;stroke-opacity:1;stop-color:#000000"
         id="path2501-5"
         d="m 129.75568,184.56228 a 21.146576,20.838083 0 0 1 20.72807,21.24238 21.146576,20.838083 0 0 1 -21.55676,20.42579 21.146576,20.838083 0 0 1 -20.72828,-21.24219 21.146576,20.838083 0 0 1 21.55657,-20.42599"
         clip-path="none" /><path
         id="lpe_path-effect1188-3-72-4-9"
         style="fill:#ee08d3;fill-opacity:1;stroke:#ee08d3;stroke-width:1.414;stroke-dasharray:none;stroke-opacity:1;stop-color:#000000"
         class="powerclip"
         d="m 93.916139,170.37428 h 70.658321 v 68.80399 H 93.916139 Z m 35.839141,14.18799 a 21.146576,20.838083 0 0 0 -21.55657,20.42599 21.146576,20.838083 0 0 0 20.72828,21.24219 21.146576,20.838083 0 0 0 21.55676,-20.42579 21.146576,20.838083 0 0 0 -20.72807,-21.24238" /></clipPath><clipPath
       clipPathUnits="userSpaceOnUse"
       id="clipath_lpe_path-effect1188-3-72-4-2"><path
         style="display:none;fill:#ee08d3;fill-opacity:1;stroke:#ee08d3;stroke-width:1.414;stroke-dasharray:none;stroke-opacity:1;stop-color:#000000"
         id="path7818"
         d="m 129.75568,184.56228 a 21.146576,20.838083 0 0 1 20.72807,21.24238 21.146576,20.838083 0 0 1 -21.55676,20.42579 21.146576,20.838083 0 0 1 -20.72828,-21.24219 21.146576,20.838083 0 0 1 21.55657,-20.42599"
         clip-path="none" /><path
         id="lpe_path-effect1188-3-72-4-2"
         style="fill:#ee08d3;fill-opacity:1;stroke:#ee08d3;stroke-width:1.414;stroke-dasharray:none;stroke-opacity:1;stop-color:#000000"
         class="powerclip"
         d="M 93.821997,170.28014 H 164.6686 v 68.99227 H 93.821997 Z m 35.933283,14.28213 a 21.146576,20.838083 0 0 0 -21.55657,20.42599 21.146576,20.838083 0 0 0 20.72828,21.24219 21.146576,20.838083 0 0 0 21.55676,-20.42579 21.146576,20.838083 0 0 0 -20.72807,-21.24238" /></clipPath></defs><g
     id="layer1"
     transform="translate(-24.729609,-99.513528)"><path
       style="fill:#010c3b;fill-opacity:1;stroke:#2997eb;stroke-width:0.802285;stroke-dasharray:none;stroke-opacity:1;stop-color:#000000"
       id="path236-8-1-3-2"
       d="m 129.8337,175.68698 a 30.022045,29.094885 0 0 1 29.42788,29.65951 30.022045,29.094885 0 0 1 -30.60465,28.51908 30.022045,29.094885 0 0 1 -29.427909,-29.65949 30.022045,29.094885 0 0 1 30.604629,-28.5191"
       clip-path="url(#clipath_lpe_path-effect1188-3-72-4-2)"
       transform="matrix(0.75992954,0,0,0.7707346,-50.368146,-35.580941)" /><path
       style="fill:#2997eb;fill-opacity:1;stroke:#2997eb;stroke-width:1.414;stroke-dasharray:none;stroke-opacity:1;stop-color:#000000"
       id="path236-3-1-7-8-6"
       d="M 48.257422,101.94461 A 20.607021,20.306147 0 0 1 68.456615,122.64474 20.607021,20.306147 0 0 1 47.449874,142.54911 20.607021,20.306147 0 0 1 27.250481,121.84917 20.607021,20.306147 0 0 1 48.257031,101.9446" /><path
       style="fill:#010c3b;fill-opacity:1;stroke:none;stroke-width:0.765001;stroke-dasharray:none;stop-color:#000000"
       d="m 48.42873,110.13104 c -10.46902,0.081 -13.67938,5.32435 -20.08826,5.67215 -1.45306,4.56794 -1.4961,9.60116 0.36518,14.06089 7.76733,0.2221 12.09163,-4.65425 19.70206,-4.80267 8.42488,-0.1643 10.57587,3.27152 18.85155,4.62824 1.20933,-3.15038 2.18061,-9.1394 -0.0978,-14.62862 -9.62077,-1.13992 -9.91981,-4.92999 -18.7328,-4.92999 z"
       id="path12347-4-5-9-2-1-2" /><path
       style="fill:#2997eb;fill-opacity:1;stroke:none;stroke-width:0.413999;stroke-dasharray:none;stop-color:#000000"
       id="path777-50-61-0-1"
       d="m 36.115452,120.69482 a 1.7543161,1.6694894 0 0 1 1.719636,1.69993 1.7543161,1.6694894 0 0 1 -1.784277,1.63848 1.7543161,1.6694894 0 0 1 -1.723831,-1.69607 1.7543161,1.6694894 0 0 1 1.780225,-1.64247" /><path
       style="fill:none;stroke:#2997eb;stroke-width:1;stroke-linecap:round;stroke-linejoin:miter;stroke-dasharray:none;stroke-opacity:1"
       d="m 32.2082,122.96709 c 0.13004,-3.53376 3.87548,-3.72933 3.87548,-3.72933"
       id="path808-3-5-8-2" /><path
       id="path924-5-6-9-8-7"
       style="fill:none;stroke:#2997eb;stroke-width:1;stroke-linecap:round;stroke-linejoin:miter;stroke-dasharray:none;stroke-opacity:1"
       d="m 34.01491,125.44857 c 1.22881,-1.61573 1.39308,0.26284 2.51086,0.12765 0.7894,-0.0955 0.60679,-0.94394 1.6682,-0.87409 0.71098,0.0468 0.50098,1.08348 1.4099,0.54712 m -11.13339,0.38009 c 1.22881,-1.61574 1.39308,0.26285 2.51086,0.12765 0.78939,-0.0955 0.60679,-0.94394 1.66819,-0.87408 0.71099,0.0468 0.50099,1.08347 1.40991,0.54712" /><path
       style="fill:none;stroke:#2997eb;stroke-width:1;stroke-linecap:round;stroke-linejoin:miter;stroke-dasharray:none;stroke-opacity:1"
       d="m 46.33209,116.28023 c 2.38076,-2.79095 5.39728,-0.18232 5.39728,-0.18232"
       id="path723-7-7-0-9-0-0" /><path
       style="fill:#2997eb;fill-opacity:1;stroke:none;stroke-width:0.314;stop-color:#000000"
       id="path777-3-6-9-6-0-9-9"
       d="m 51.444183,111.46849 a 1.6674809,1.5501363 0 0 1 1.634518,1.5784 1.6674809,1.5501363 0 0 1 -1.695959,1.52135 1.6674809,1.5501363 0 0 1 -1.638505,-1.57482 1.6674809,1.5501363 0 0 1 1.692107,-1.52505" /><path
       style="fill:#2997eb;fill-opacity:1;stroke:none;stroke-width:0.314002;stop-color:#000000"
       id="path777-3-1-3-9-6-3"
       d="m 43.744385,117.98004 a 2.1737268,2.0261812 0 0 1 2.130755,2.06313 2.1737268,2.0261812 0 0 1 -2.210851,1.98855 2.1737268,2.0261812 0 0 1 -2.135953,-2.05845 2.1737268,2.0261812 0 0 1 2.205829,-1.99339" /><path
       style="fill:#2997eb;fill-opacity:1;stroke:none;stroke-width:0.314002;stop-color:#000000"
       id="path777-3-1-8-2-1-3-6"
       d="m 52.715092,117.6271 a 2.1737268,2.0261812 0 0 1 2.130755,2.06312 2.1737268,2.0261812 0 0 1 -2.210851,1.98855 2.1737268,2.0261812 0 0 1 -2.135953,-2.05844 2.1737268,2.0261812 0 0 1 2.205829,-1.99339" /><path
       style="fill:none;stroke:#2997eb;stroke-width:1;stroke-linecap:round;stroke-linejoin:miter;stroke-dasharray:none;stroke-opacity:1"
       d="m 46.0312,117.8872 c 0,0 2.88365,-0.57153 2.59653,2.34458"
       id="path4675-0-7-8-0" /><path
       style="fill:none;stroke:#2997eb;stroke-width:1;stroke-linecap:round;stroke-linejoin:miter;stroke-dasharray:none;stroke-opacity:1"
       d="m 58.31411,121.55938 c 1.58875,-1.91223 3.21513,-0.70699 3.21513,-0.70699"
       id="path723-7-2-1-1-6-6" /><path
       style="fill:#2997eb;fill-opacity:1;stroke:none;stroke-width:0.314;stop-color:#000000"
       id="path777-3-6-3-5-1-1-2"
       d="m 63.943691,116.61481 a 1.7272272,1.6008872 0 0 1 1.693083,1.63008 1.7272272,1.6008872 0 0 1 -1.756726,1.57115 1.7272272,1.6008872 0 0 1 -1.697212,-1.62638 1.7272272,1.6008872 0 0 1 1.752735,-1.57498" /><path
       style="fill:none;stroke:#2997eb;stroke-width:1;stroke-linecap:round;stroke-linejoin:miter;stroke-dasharray:none;stroke-opacity:1"
       d="m 63.6119,121.2253 c 0,0 0.1717,1.92538 2.70941,1.03384"
       id="path806-0-7-5-5-1-6" /><path
       style="fill:none;stroke:#2997eb;stroke-width:1;stroke-linecap:round;stroke-linejoin:miter;stroke-dasharray:none;stroke-opacity:1"
       d="m 61.43574,123.10039 c 0.5464,0.42476 2.28761,0.034 2.53328,4.50412"
       id="path4675-2-5-4-9-5-1" /><path
       style="fill:none;stroke:#2997eb;stroke-width:1;stroke-linecap:round;stroke-linejoin:miter;stroke-dasharray:none;stroke-opacity:1"
       d="m 57.66586,124.95041 c 0.54217,0.34342 1.84061,1.6134 3.21871,-0.8553"
       id="path8417-9-7-7-9-8" /><g
       aria-label="TSM"
       id="text18909-65-7-8-7"
       style="font-size:7.76111px;fill:#010c3b;stroke-width:0.264583"><path
         d="m 39.338891,129.49559 h 5.214496 v 1.10278 h -1.875855 v 4.5551 h -1.458997 v -4.5551 h -1.879644 z"
         style="-inkscape-font-specification:'sans-serif Bold'"
         id="path11194" /><path
         d="m 49.244917,129.6737 v 1.19752 q -0.466121,-0.20843 -0.909505,-0.31454 -0.443384,-0.10611 -0.837503,-0.10611 -0.522965,0 -0.773079,0.14401 -0.250114,0.144 -0.250114,0.44717 0,0.22738 0.166743,0.35622 0.170532,0.12506 0.613916,0.21601 l 0.621495,0.12506 q 0.943611,0.18948 1.34152,0.57602 0.397908,0.38654 0.397908,1.09898 0,0.93604 -0.557072,1.39458 -0.553282,0.45475 -1.693953,0.45475 -0.538124,0 -1.080037,-0.10232 -0.541914,-0.10232 -1.083827,-0.30317 v -1.23162 q 0.541913,0.28801 1.045931,0.43581 0.507807,0.144 0.977718,0.144 0.47749,0 0.731393,-0.15916 0.253904,-0.15916 0.253904,-0.45475 0,-0.26528 -0.174322,-0.40928 -0.170532,-0.14401 -0.685918,-0.25769 l -0.564651,-0.12506 q -0.848872,-0.1819 -1.242991,-0.57981 -0.390329,-0.39791 -0.390329,-1.07246 0,-0.84508 0.545703,-1.29983 0.545703,-0.45476 1.568896,-0.45476 0.466122,0 0.95877,0.072 0.492649,0.0682 1.019404,0.20842 z"
         style="-inkscape-font-specification:'sans-serif Bold'"
         id="path11196" /><path
         d="m 50.897184,129.49559 h 1.856906 l 1.288465,3.0279 1.296045,-3.0279 h 1.853117 v 5.65788 h -1.379416 v -4.13825 l -1.303624,3.05064 h -0.924664 l -1.303624,-3.05064 v 4.13825 h -1.383205 z"
         style="-inkscape-font-specification:'sans-serif Bold'"
         id="path11198" /></g><g
       aria-label="TRIATHLON SAINT-MAUR"
       id="text10730"
       style="font-size:12.7px;stroke-width:0.265;stroke-dasharray:none"><text
         xml:space="preserve"
         style="font-style:normal;font-variant:normal;font-weight:600;font-stretch:normal;font-size:12.7px;line-height:1.25;font-family:FreeSans;-inkscape-font-specification:'FreeSans Semi-Bold';stroke-width:0.07;stroke-dasharray:none;fill:#2997eb;fill-opacity:1"
         x="76.555626"
         y="127.74935"
         id="text1"><tspan
           sodipodi:role="line"
           id="tspan1"
           style="font-style:normal;font-variant:normal;font-weight:600;font-stretch:normal;font-size:12.7px;line-height:1.25;font-family:FreeSans;-inkscape-font-specification:'FreeSans Semi-Bold';fill:#2997eb;fill-opacity:1;stroke-width:0.07;stroke-dasharray:none"
           x="76.555626"
           y="127.74935">INSCRIPTION</tspan></text><g
         id="Gesture_x2C__hand_x2C__single_x2C__tap_x2C__click_1_"
         transform="matrix(0.97453753,0,0,0.93530553,115.56381,136.40083)"
         style="stroke-width:1.836;stroke:#2997eb;stroke-opacity:1">



<g
   id="XMLID_3937_"
   style="fill:none;stroke:#2997eb;stroke-width:1.83614;stroke-dasharray:none;stroke-opacity:1"
   transform="matrix(0.72597545,-0.7165675,0.66003501,0.72597545,-15.673152,5.3044419)">

<g
   id="XMLID_3938_"
   style="fill:none;stroke:#2997eb;stroke-width:1.83614;stroke-dasharray:none;stroke-opacity:1">

<path
   d="M 10.891,26.034 9.491,24.79 C 8.791,24.16 8.251,23.38 7.911,22.5 L 5.9,16.95 c -0.17,-0.47 0.05,-0.99 0.5,-1.2 0.239,-0.11 0.479,-0.16 0.729,-0.16 0.63,0 1.24,0.351 1.55,0.95 l 1.84,3.7 c 0.62,-0.46 0.98,-1.19 0.98,-1.95 V 6.5 C 11.5,5.67 12.17,5 13,5 c 0.83,0 1.5,0.67 1.5,1.5 v 8 c 0,-0.83 0.67,-1.5 1.5,-1.5 0.83,0 1.5,0.67 1.5,1.5 V 15 c 0,-0.83 0.67,-1.5 1.5,-1.5 0.83,0 1.5,0.67 1.5,1.5 v 1 c 0,-0.83 0.67,-1.5 1.5,-1.5 0.83,0 1.5,0.67 1.5,1.5 v 8.09 c 0,0.675 -0.202,1.333 -0.573,1.891"
   fill="none"
   id="XMLID_3995_"
   stroke="#263238"
   stroke-linecap="round"
   stroke-linejoin="round"
   stroke-miterlimit="10"
   style="fill:none;stroke:#2997eb;stroke-width:1.83614;stroke-dasharray:none;stroke-opacity:1" />

<g
   id="XMLID_3940_"
   style="fill:none;stroke:#2997eb;stroke-width:1.83614;stroke-dasharray:none;stroke-opacity:1">

<g
   id="XMLID_3993_"
   style="fill:none;stroke:#2997eb;stroke-width:1.83614;stroke-dasharray:none;stroke-opacity:1">

<line
   fill="none"
   id="XMLID_3994_"
   stroke="#263238"
   stroke-linecap="round"
   stroke-linejoin="round"
   stroke-miterlimit="10"
   x1="10.172"
   x2="9.4650002"
   y1="3.6719999"
   y2="2.9649999"
   style="fill:none;stroke:#2997eb;stroke-width:1.83614;stroke-dasharray:none;stroke-opacity:1" />

</g>

<g
   id="XMLID_3991_"
   style="fill:none;stroke:#2997eb;stroke-width:1.83614;stroke-dasharray:none;stroke-opacity:1">

<line
   fill="none"
   id="XMLID_3992_"
   stroke="#263238"
   stroke-linecap="round"
   stroke-linejoin="round"
   stroke-miterlimit="10"
   x1="13"
   x2="13"
   y1="2.5"
   y2="1.5"
   style="fill:none;stroke:#2997eb;stroke-width:1.83614;stroke-dasharray:none;stroke-opacity:1" />

</g>

<g
   id="XMLID_3944_"
   style="fill:none;stroke:#2997eb;stroke-width:1.83614;stroke-dasharray:none;stroke-opacity:1">

<line
   fill="none"
   id="XMLID_3945_"
   stroke="#263238"
   stroke-linecap="round"
   stroke-linejoin="round"
   stroke-miterlimit="10"
   x1="15.828"
   x2="16.535"
   y1="3.6719999"
   y2="2.9649999"
   style="fill:none;stroke:#2997eb;stroke-width:1.83614;stroke-dasharray:none;stroke-opacity:1" />

</g>

<g
   id="XMLID_3941_"
   style="fill:none;stroke:#2997eb;stroke-width:1.83614;stroke-dasharray:none;stroke-opacity:1">

<line
   fill="none"
   id="XMLID_3943_"
   stroke="#263238"
   stroke-linecap="round"
   stroke-linejoin="round"
   stroke-miterlimit="10"
   x1="17"
   x2="18"
   y1="6.5"
   y2="6.5"
   style="fill:none;stroke:#2997eb;stroke-width:1.83614;stroke-dasharray:none;stroke-opacity:1" />

<line
   fill="none"
   id="XMLID_3942_"
   stroke="#263238"
   stroke-linecap="round"
   stroke-linejoin="round"
   stroke-miterlimit="10"
   x1="8"
   x2="9"
   y1="6.5"
   y2="6.5"
   style="fill:none;stroke:#2997eb;stroke-width:1.83614;stroke-dasharray:none;stroke-opacity:1" />

</g>

</g>

<polyline
   fill="none"
   id="XMLID_3939_"
   points="     10.5,30.5 10.5,27.5 23.5,27.5 23.5,30.5    "
   stroke="#263238"
   stroke-linecap="round"
   stroke-linejoin="round"
   stroke-miterlimit="10"
   style="fill:none;stroke:#2997eb;stroke-width:1.83614;stroke-dasharray:none;stroke-opacity:1" />

</g>

</g>

</g></g></g></svg>
