<?xml version="1.0" encoding="UTF-8" standalone="no"?>
<!-- Created with Inkscape (http://www.inkscape.org/) -->

<svg
   width="210mm"
   height="297mm"
   viewBox="0 0 210 297"
   version="1.1"
   id="svg5"
   xml:space="preserve"
   xmlns="http://www.w3.org/2000/svg"
   xmlns:svg="http://www.w3.org/2000/svg"><defs
     id="defs2"><clipPath
       clipPathUnits="userSpaceOnUse"
       id="clipPath1184"><path
         style="display:block;fill:#ee08d3;fill-opacity:1;stroke:#ee08d3;stroke-width:1.414;stroke-dasharray:none;stroke-opacity:1;stop-color:#000000"
         id="path1186"
         clip-path="none" /></clipPath><clipPath
       clipPathUnits="userSpaceOnUse"
       id="clipPath1184-1"><path
         style="display:none;fill:#ee08d3;fill-opacity:1;stroke:#ee08d3;stroke-width:1.414;stroke-dasharray:none;stroke-opacity:1;stop-color:#000000"
         id="path1186-2"
         d="m 129.75568,184.56228 a 21.146576,20.838083 0 0 1 20.72807,21.24238 21.146576,20.838083 0 0 1 -21.55676,20.42579 21.146576,20.838083 0 0 1 -20.72828,-21.24219 21.146576,20.838083 0 0 1 21.55657,-20.42599"
         clip-path="none" /><path
         id="lpe_path-effect1188-9"
         style="fill:#ee08d3;fill-opacity:1;stroke:#ee08d3;stroke-width:1.414;stroke-dasharray:none;stroke-opacity:1;stop-color:#000000"
         class="powerclip"
         d="m 93.916139,170.37428 h 70.658321 v 68.80399 H 93.916139 Z m 35.839141,14.18799 a 21.146576,20.838083 0 0 0 -21.55657,20.42599 21.146576,20.838083 0 0 0 20.72828,21.24219 21.146576,20.838083 0 0 0 21.55676,-20.42579 21.146576,20.838083 0 0 0 -20.72807,-21.24238" /></clipPath><clipPath
       clipPathUnits="userSpaceOnUse"
       id="clipath_lpe_path-effect1188-3"><path
         style="display:block;fill:#ee08d3;fill-opacity:1;stroke:#ee08d3;stroke-width:1.414;stroke-dasharray:none;stroke-opacity:1;stop-color:#000000"
         id="path1813"
         clip-path="none" /></clipPath><clipPath
       clipPathUnits="userSpaceOnUse"
       id="clipath_lpe_path-effect1188-3-2"><path
         style="display:none;fill:#ee08d3;fill-opacity:1;stroke:#ee08d3;stroke-width:1.414;stroke-dasharray:none;stroke-opacity:1;stop-color:#000000"
         id="path1813-5"
         d="m 129.75568,184.56228 a 21.146576,20.838083 0 0 1 20.72807,21.24238 21.146576,20.838083 0 0 1 -21.55676,20.42579 21.146576,20.838083 0 0 1 -20.72828,-21.24219 21.146576,20.838083 0 0 1 21.55657,-20.42599"
         clip-path="none" /><path
         id="lpe_path-effect1188-3-4"
         style="fill:#ee08d3;fill-opacity:1;stroke:#ee08d3;stroke-width:1.414;stroke-dasharray:none;stroke-opacity:1;stop-color:#000000"
         class="powerclip"
         d="m 93.916139,170.37428 h 70.658321 v 68.80399 H 93.916139 Z m 35.839141,14.18799 a 21.146576,20.838083 0 0 0 -21.55657,20.42599 21.146576,20.838083 0 0 0 20.72828,21.24219 21.146576,20.838083 0 0 0 21.55676,-20.42579 21.146576,20.838083 0 0 0 -20.72807,-21.24238" /></clipPath><clipPath
       clipPathUnits="userSpaceOnUse"
       id="clipath_lpe_path-effect1188-3-7"><path
         style="display:block;fill:#ee08d3;fill-opacity:1;stroke:#ee08d3;stroke-width:1.414;stroke-dasharray:none;stroke-opacity:1;stop-color:#000000"
         id="path2021"
         clip-path="none" /></clipPath><clipPath
       clipPathUnits="userSpaceOnUse"
       id="clipath_lpe_path-effect1188-3-8"><path
         style="display:none;fill:#ee08d3;fill-opacity:1;stroke:#ee08d3;stroke-width:1.414;stroke-dasharray:none;stroke-opacity:1;stop-color:#000000"
         id="path1813-7"
         d="m 129.75568,184.56228 a 21.146576,20.838083 0 0 1 20.72807,21.24238 21.146576,20.838083 0 0 1 -21.55676,20.42579 21.146576,20.838083 0 0 1 -20.72828,-21.24219 21.146576,20.838083 0 0 1 21.55657,-20.42599"
         clip-path="none" /><path
         id="lpe_path-effect1188-3-1"
         style="fill:#ee08d3;fill-opacity:1;stroke:#ee08d3;stroke-width:1.414;stroke-dasharray:none;stroke-opacity:1;stop-color:#000000"
         class="powerclip"
         d="m 93.916139,170.37428 h 70.658321 v 68.80399 H 93.916139 Z m 35.839141,14.18799 a 21.146576,20.838083 0 0 0 -21.55657,20.42599 21.146576,20.838083 0 0 0 20.72828,21.24219 21.146576,20.838083 0 0 0 21.55676,-20.42579 21.146576,20.838083 0 0 0 -20.72807,-21.24238" /></clipPath><clipPath
       clipPathUnits="userSpaceOnUse"
       id="clipath_lpe_path-effect1188-3-72"><path
         style="display:block;fill:#ee08d3;fill-opacity:1;stroke:#ee08d3;stroke-width:1.414;stroke-dasharray:none;stroke-opacity:1;stop-color:#000000"
         id="path2293"
         clip-path="none" /></clipPath><clipPath
       clipPathUnits="userSpaceOnUse"
       id="clipath_lpe_path-effect1188-3-72-6"><path
         style="display:block;fill:#ee08d3;fill-opacity:1;stroke:#ee08d3;stroke-width:1.414;stroke-dasharray:none;stroke-opacity:1;stop-color:#000000"
         id="path2293-3"
         clip-path="none" /><path
         id="lpe_path-effect1188-3-72-9"
         style="fill:#ee08d3;fill-opacity:1;stroke:#ee08d3;stroke-width:1.414;stroke-dasharray:none;stroke-opacity:1;stop-color:#000000"
         class="powerclip"
         d="m 93.916139,170.37428 h 70.658321 v 68.80399 H 93.916139 Z m 35.839141,14.18799 a 21.146576,20.838083 0 0 0 -21.55657,20.42599 21.146576,20.838083 0 0 0 20.72828,21.24219 21.146576,20.838083 0 0 0 21.55676,-20.42579 21.146576,20.838083 0 0 0 -20.72807,-21.24238" /></clipPath><clipPath
       clipPathUnits="userSpaceOnUse"
       id="clipath_lpe_path-effect1188-3-72-4"><path
         style="display:none;fill:#ee08d3;fill-opacity:1;stroke:#ee08d3;stroke-width:1.414;stroke-dasharray:none;stroke-opacity:1;stop-color:#000000"
         id="path2501"
         d="m 129.75568,184.56228 a 21.146576,20.838083 0 0 1 20.72807,21.24238 21.146576,20.838083 0 0 1 -21.55676,20.42579 21.146576,20.838083 0 0 1 -20.72828,-21.24219 21.146576,20.838083 0 0 1 21.55657,-20.42599"
         clip-path="none" /><path
         id="lpe_path-effect1188-3-72-4"
         style="fill:#ee08d3;fill-opacity:1;stroke:#ee08d3;stroke-width:1.414;stroke-dasharray:none;stroke-opacity:1;stop-color:#000000"
         class="powerclip"
         d="m 93.916139,170.37428 h 70.658321 v 68.80399 H 93.916139 Z m 35.839141,14.18799 a 21.146576,20.838083 0 0 0 -21.55657,20.42599 21.146576,20.838083 0 0 0 20.72828,21.24219 21.146576,20.838083 0 0 0 21.55676,-20.42579 21.146576,20.838083 0 0 0 -20.72807,-21.24238" /></clipPath><clipPath
       clipPathUnits="userSpaceOnUse"
       id="clipPath1184-0"><path
         style="display:block;fill:#ee08d3;fill-opacity:1;stroke:#ee08d3;stroke-width:1.414;stroke-dasharray:none;stroke-opacity:1;stop-color:#000000"
         id="path1186-4"
         clip-path="none" /></clipPath><clipPath
       clipPathUnits="userSpaceOnUse"
       id="clipath_lpe_path-effect1188-3-72-43"><path
         style="display:none;fill:#ee08d3;fill-opacity:1;stroke:#ee08d3;stroke-width:1.414;stroke-dasharray:none;stroke-opacity:1;stop-color:#000000"
         id="path2293-33"
         d="m 129.75568,184.56228 a 21.146576,20.838083 0 0 1 20.72807,21.24238 21.146576,20.838083 0 0 1 -21.55676,20.42579 21.146576,20.838083 0 0 1 -20.72828,-21.24219 21.146576,20.838083 0 0 1 21.55657,-20.42599"
         clip-path="none" /><path
         id="lpe_path-effect1188-3-72-8"
         style="fill:#ee08d3;fill-opacity:1;stroke:#ee08d3;stroke-width:1.414;stroke-dasharray:none;stroke-opacity:1;stop-color:#000000"
         class="powerclip"
         d="m 93.916139,170.37428 h 70.658321 v 68.80399 H 93.916139 Z m 35.839141,14.18799 a 21.146576,20.838083 0 0 0 -21.55657,20.42599 21.146576,20.838083 0 0 0 20.72828,21.24219 21.146576,20.838083 0 0 0 21.55676,-20.42579 21.146576,20.838083 0 0 0 -20.72807,-21.24238" /></clipPath><clipPath
       clipPathUnits="userSpaceOnUse"
       id="clipPath2927"><path
         style="display:none;fill:#ee08d3;fill-opacity:1;stroke:#ee08d3;stroke-width:1.414;stroke-dasharray:none;stroke-opacity:1;stop-color:#000000"
         id="path2923"
         d="m 129.75568,184.56228 a 21.146576,20.838083 0 0 1 20.72807,21.24238 21.146576,20.838083 0 0 1 -21.55676,20.42579 21.146576,20.838083 0 0 1 -20.72828,-21.24219 21.146576,20.838083 0 0 1 21.55657,-20.42599"
         clip-path="none" /></clipPath><clipPath
       clipPathUnits="userSpaceOnUse"
       id="clipath_lpe_path-effect1188-3-7-2"><path
         style="display:block;fill:#ee08d3;fill-opacity:1;stroke:#ee08d3;stroke-width:1.414;stroke-dasharray:none;stroke-opacity:1;stop-color:#000000"
         id="path2021-4"
         clip-path="none" /></clipPath><clipPath
       clipPathUnits="userSpaceOnUse"
       id="clipath_lpe_path-effect1188-3-7-6"><path
         style="display:none;fill:#ee08d3;fill-opacity:1;stroke:#ee08d3;stroke-width:1.414;stroke-dasharray:none;stroke-opacity:1;stop-color:#000000"
         id="path2021-2"
         d="m 129.75568,184.56228 a 21.146576,20.838083 0 0 1 20.72807,21.24238 21.146576,20.838083 0 0 1 -21.55676,20.42579 21.146576,20.838083 0 0 1 -20.72828,-21.24219 21.146576,20.838083 0 0 1 21.55657,-20.42599"
         clip-path="none" /><path
         id="lpe_path-effect1188-3-7-8"
         style="fill:#ee08d3;fill-opacity:1;stroke:#ee08d3;stroke-width:1.414;stroke-dasharray:none;stroke-opacity:1;stop-color:#000000"
         class="powerclip"
         d="m 93.916139,170.37428 h 70.658321 v 68.80399 H 93.916139 Z m 35.839141,14.18799 a 21.146576,20.838083 0 0 0 -21.55657,20.42599 21.146576,20.838083 0 0 0 20.72828,21.24219 21.146576,20.838083 0 0 0 21.55676,-20.42579 21.146576,20.838083 0 0 0 -20.72807,-21.24238" /></clipPath><clipPath
       clipPathUnits="userSpaceOnUse"
       id="clipath_lpe_path-effect1188-3-7-4"><path
         style="display:block;fill:#ee08d3;fill-opacity:1;stroke:#ee08d3;stroke-width:1.414;stroke-dasharray:none;stroke-opacity:1;stop-color:#000000"
         id="path3258"
         clip-path="none" /></clipPath><clipPath
       clipPathUnits="userSpaceOnUse"
       id="clipath_lpe_path-effect1188-3-7-2-6"><path
         style="display:none;fill:#ee08d3;fill-opacity:1;stroke:#ee08d3;stroke-width:1.414;stroke-dasharray:none;stroke-opacity:1;stop-color:#000000"
         id="path2021-4-6"
         d="m 129.75568,184.56228 a 21.146576,20.838083 0 0 1 20.72807,21.24238 21.146576,20.838083 0 0 1 -21.55676,20.42579 21.146576,20.838083 0 0 1 -20.72828,-21.24219 21.146576,20.838083 0 0 1 21.55657,-20.42599"
         clip-path="none" /><path
         id="lpe_path-effect1188-3-7-7-4"
         style="fill:#ee08d3;fill-opacity:1;stroke:#ee08d3;stroke-width:1.414;stroke-dasharray:none;stroke-opacity:1;stop-color:#000000"
         class="powerclip"
         d="m 93.916139,170.37428 h 70.658321 v 68.80399 H 93.916139 Z m 35.839141,14.18799 a 21.146576,20.838083 0 0 0 -21.55657,20.42599 21.146576,20.838083 0 0 0 20.72828,21.24219 21.146576,20.838083 0 0 0 21.55676,-20.42579 21.146576,20.838083 0 0 0 -20.72807,-21.24238" /></clipPath><clipPath
       clipPathUnits="userSpaceOnUse"
       id="clipath_lpe_path-effect1188-3-7-7-0"><path
         style="display:block;fill:#ee08d3;fill-opacity:1;stroke:#ee08d3;stroke-width:1.414;stroke-dasharray:none;stroke-opacity:1;stop-color:#000000"
         id="path3492"
         clip-path="none" /></clipPath><clipPath
       clipPathUnits="userSpaceOnUse"
       id="clipath_lpe_path-effect1188-3-72-4-3"><path
         style="display:none;fill:#ee08d3;fill-opacity:1;stroke:#ee08d3;stroke-width:1.414;stroke-dasharray:none;stroke-opacity:1;stop-color:#000000"
         id="path2501-6"
         d="m 129.75568,184.56228 a 21.146576,20.838083 0 0 1 20.72807,21.24238 21.146576,20.838083 0 0 1 -21.55676,20.42579 21.146576,20.838083 0 0 1 -20.72828,-21.24219 21.146576,20.838083 0 0 1 21.55657,-20.42599"
         clip-path="none" /><path
         id="lpe_path-effect1188-3-72-4-7"
         style="fill:#ee08d3;fill-opacity:1;stroke:#ee08d3;stroke-width:1.414;stroke-dasharray:none;stroke-opacity:1;stop-color:#000000"
         class="powerclip"
         d="m 93.916139,170.37428 h 70.658321 v 68.80399 H 93.916139 Z m 35.839141,14.18799 a 21.146576,20.838083 0 0 0 -21.55657,20.42599 21.146576,20.838083 0 0 0 20.72828,21.24219 21.146576,20.838083 0 0 0 21.55676,-20.42579 21.146576,20.838083 0 0 0 -20.72807,-21.24238" /></clipPath><clipPath
       clipPathUnits="userSpaceOnUse"
       id="clipath_lpe_path-effect1188-3-72-4-5"><path
         style="display:block;fill:#ee08d3;fill-opacity:1;stroke:#ee08d3;stroke-width:1.414;stroke-dasharray:none;stroke-opacity:1;stop-color:#000000"
         id="path7017"
         clip-path="none" /></clipPath><clipPath
       clipPathUnits="userSpaceOnUse"
       id="clipath_lpe_path-effect1188-3-72-4-7"><path
         style="display:none;fill:#ee08d3;fill-opacity:1;stroke:#ee08d3;stroke-width:1.414;stroke-dasharray:none;stroke-opacity:1;stop-color:#000000"
         id="path2501-5"
         d="m 129.75568,184.56228 a 21.146576,20.838083 0 0 1 20.72807,21.24238 21.146576,20.838083 0 0 1 -21.55676,20.42579 21.146576,20.838083 0 0 1 -20.72828,-21.24219 21.146576,20.838083 0 0 1 21.55657,-20.42599"
         clip-path="none" /><path
         id="lpe_path-effect1188-3-72-4-9"
         style="fill:#ee08d3;fill-opacity:1;stroke:#ee08d3;stroke-width:1.414;stroke-dasharray:none;stroke-opacity:1;stop-color:#000000"
         class="powerclip"
         d="m 93.916139,170.37428 h 70.658321 v 68.80399 H 93.916139 Z m 35.839141,14.18799 a 21.146576,20.838083 0 0 0 -21.55657,20.42599 21.146576,20.838083 0 0 0 20.72828,21.24219 21.146576,20.838083 0 0 0 21.55676,-20.42579 21.146576,20.838083 0 0 0 -20.72807,-21.24238" /></clipPath><clipPath
       clipPathUnits="userSpaceOnUse"
       id="clipath_lpe_path-effect1188-3-72-4-2"><path
         style="display:none;fill:#ee08d3;fill-opacity:1;stroke:#ee08d3;stroke-width:1.414;stroke-dasharray:none;stroke-opacity:1;stop-color:#000000"
         id="path7818"
         d="m 129.75568,184.56228 a 21.146576,20.838083 0 0 1 20.72807,21.24238 21.146576,20.838083 0 0 1 -21.55676,20.42579 21.146576,20.838083 0 0 1 -20.72828,-21.24219 21.146576,20.838083 0 0 1 21.55657,-20.42599"
         clip-path="none" /><path
         id="lpe_path-effect1188-3-72-4-2"
         style="fill:#ee08d3;fill-opacity:1;stroke:#ee08d3;stroke-width:1.414;stroke-dasharray:none;stroke-opacity:1;stop-color:#000000"
         class="powerclip"
         d="M 93.821997,170.28014 H 164.6686 v 68.99227 H 93.821997 Z m 35.933283,14.28213 a 21.146576,20.838083 0 0 0 -21.55657,20.42599 21.146576,20.838083 0 0 0 20.72828,21.24219 21.146576,20.838083 0 0 0 21.55676,-20.42579 21.146576,20.838083 0 0 0 -20.72807,-21.24238" /></clipPath></defs><g
     id="layer1"><g
       id="layer1-7"
       transform="translate(10.954314,65.976223)"><path
         style="fill:none;stroke:#ffffff;stroke-width:0.264583px;stroke-linecap:butt;stroke-linejoin:miter;stroke-opacity:1"
         d="M 22.711811,30.602988 C 34.160644,9.490056 58.866327,13.27414 66.412102,29.855069"
         id="path19041-7-6-9" /><path
         style="fill:none;stroke:#ffffff;stroke-width:0.264582px;stroke-linecap:butt;stroke-linejoin:miter;stroke-opacity:1"
         d="M 23.039586,56.173637 C 35.54534,68.646354 53.404787,70.149078 66.209749,55.938816"
         id="path19046-4-2-2" /><path
         style="fill:#2997eb;fill-opacity:1;stroke:#2997eb;stroke-width:1.414;stroke-dasharray:none;stroke-opacity:1;stop-color:#000000"
         id="path236-3-1-7-8"
         d="M 46.179738,19.603274 A 22.735109,22.404192 0 0 1 68.464902,42.44215 22.735109,22.404192 0 0 1 45.288793,64.403055 22.735109,22.404192 0 0 1 23.003409,41.564387 22.735109,22.404192 0 0 1 46.179306,19.603265" /><path
         style="fill:#010c3b;fill-opacity:1;stroke:none;stroke-width:0.765001;stroke-dasharray:none;stop-color:#000000"
         d="m 45.391798,29.351599 c -10.46902,0.081 -13.67938,5.324357 -20.08826,5.672157 -1.45306,4.56794 -1.4961,9.60116 0.36518,14.06089 7.76733,0.2221 12.09163,-4.65425 19.70206,-4.80267 8.42488,-0.1643 10.57587,3.27152 18.85155,4.62824 1.20933,-3.15038 2.18061,-9.1394 -0.0978,-14.62862 -9.62077,-1.13992 -9.91981,-4.929997 -18.7328,-4.929997 z"
         id="path12347-4-5-9-2-1" /><path
         style="fill:#010c3b;fill-opacity:1;stroke:#2997eb;stroke-width:0.614;stroke-dasharray:none;stroke-opacity:1;stop-color:#000000"
         id="path236-8-1-3"
         d="m 129.8337,175.68698 a 30.022045,29.094885 0 0 1 29.42788,29.65951 30.022045,29.094885 0 0 1 -30.60465,28.51908 30.022045,29.094885 0 0 1 -29.427909,-29.65949 30.022045,29.094885 0 0 1 30.604629,-28.5191"
         clip-path="url(#clipath_lpe_path-effect1188-3-72-4)"
         transform="translate(-84.461619,-163.85434)" /><path
         style="fill:#2997eb;fill-opacity:1;stroke:none;stroke-width:0.413999;stroke-dasharray:none;stop-color:#000000"
         id="path777-50-61-0"
         d="m 33.078522,39.915384 a 1.7543161,1.6694894 0 0 1 1.719636,1.699927 1.7543161,1.6694894 0 0 1 -1.784277,1.638483 1.7543161,1.6694894 0 0 1 -1.723831,-1.696075 1.7543161,1.6694894 0 0 1 1.780225,-1.64247" /><path
         style="fill:none;stroke:#2997eb;stroke-width:1;stroke-linecap:round;stroke-linejoin:miter;stroke-dasharray:none;stroke-opacity:1"
         d="m 29.171268,42.18765 c 0.13004,-3.53376 3.87548,-3.72933 3.87548,-3.72933"
         id="path808-3-5-8" /><path
         id="path924-5-6-9-8"
         style="fill:none;stroke:#2997eb;stroke-width:1;stroke-linecap:round;stroke-linejoin:miter;stroke-dasharray:none;stroke-opacity:1"
         d="m 30.977978,44.66913 c 1.22881,-1.61573 1.39308,0.26284 2.51086,0.12765 0.7894,-0.0955 0.60679,-0.94394 1.6682,-0.87409 0.71098,0.0468 0.50098,1.08348 1.4099,0.54712 m -11.13339,0.38009 c 1.22881,-1.61574 1.39308,0.26285 2.51086,0.12765 0.78939,-0.0955 0.60679,-0.94394 1.66819,-0.87408 0.71099,0.0468 0.50099,1.08347 1.40991,0.54712" /><path
         style="fill:none;stroke:#2997eb;stroke-width:1;stroke-linecap:round;stroke-linejoin:miter;stroke-dasharray:none;stroke-opacity:1"
         d="m 43.295158,35.50079 c 2.38076,-2.79095 5.39728,-0.18232 5.39728,-0.18232"
         id="path723-7-7-0-9-0" /><path
         style="fill:#2997eb;fill-opacity:1;stroke:none;stroke-width:0.314;stop-color:#000000"
         id="path777-3-6-9-6-0-9"
         d="m 48.40725,30.689057 a 1.6674809,1.5501363 0 0 1 1.634517,1.578397 1.6674809,1.5501363 0 0 1 -1.695959,1.521347 1.6674809,1.5501363 0 0 1 -1.638505,-1.574821 1.6674809,1.5501363 0 0 1 1.692107,-1.525049" /><path
         style="fill:#2997eb;fill-opacity:1;stroke:none;stroke-width:0.314002;stop-color:#000000"
         id="path777-3-1-3-9-6"
         d="m 40.707455,37.200606 a 2.1737268,2.0261812 0 0 1 2.130755,2.063122 2.1737268,2.0261812 0 0 1 -2.210851,1.98855 2.1737268,2.0261812 0 0 1 -2.135953,-2.058446 2.1737268,2.0261812 0 0 1 2.205829,-1.99339" /><path
         style="fill:#2997eb;fill-opacity:1;stroke:none;stroke-width:0.314002;stop-color:#000000"
         id="path777-3-1-8-2-1-3"
         d="m 49.678158,36.847655 a 2.1737268,2.0261812 0 0 1 2.130755,2.063122 2.1737268,2.0261812 0 0 1 -2.210851,1.98855 2.1737268,2.0261812 0 0 1 -2.135953,-2.058446 2.1737268,2.0261812 0 0 1 2.20583,-1.99339" /><path
         style="fill:none;stroke:#2997eb;stroke-width:1;stroke-linecap:round;stroke-linejoin:miter;stroke-dasharray:none;stroke-opacity:1"
         d="m 42.994268,37.10776 c 0,0 2.88365,-0.57153 2.59653,2.34458"
         id="path4675-0-7-8" /><path
         style="fill:none;stroke:#2997eb;stroke-width:1;stroke-linecap:round;stroke-linejoin:miter;stroke-dasharray:none;stroke-opacity:1"
         d="m 55.277178,40.77994 c 1.58875,-1.91223 3.21513,-0.70699 3.21513,-0.70699"
         id="path723-7-2-1-1-6" /><path
         style="fill:#2997eb;fill-opacity:1;stroke:none;stroke-width:0.314;stop-color:#000000"
         id="path777-3-6-3-5-1-1"
         d="m 60.906757,35.835368 a 1.7272272,1.6008872 0 0 1 1.693083,1.630073 1.7272272,1.6008872 0 0 1 -1.756726,1.571155 1.7272272,1.6008872 0 0 1 -1.697212,-1.626379 1.7272272,1.6008872 0 0 1 1.752735,-1.574979" /><path
         style="fill:none;stroke:#2997eb;stroke-width:1;stroke-linecap:round;stroke-linejoin:miter;stroke-dasharray:none;stroke-opacity:1"
         d="m 60.574968,40.44586 c 0,0 0.1717,1.92538 2.70941,1.03384"
         id="path806-0-7-5-5-1" /><path
         style="fill:none;stroke:#2997eb;stroke-width:1;stroke-linecap:round;stroke-linejoin:miter;stroke-dasharray:none;stroke-opacity:1"
         d="m 58.398808,42.32095 c 0.5464,0.42476 2.28761,0.034 2.53328,4.50412"
         id="path4675-2-5-4-9-5" /><path
         style="fill:none;stroke:#2997eb;stroke-width:1;stroke-linecap:round;stroke-linejoin:miter;stroke-dasharray:none;stroke-opacity:1"
         d="m 54.628928,44.17097 c 0.54217,0.34342 1.84061,1.6134 3.21871,-0.8553"
         id="path8417-9-7-7-9" /><g
         aria-label="TSM"
         id="text18909-65-7-8"
         style="font-size:7.76111px;fill:#010c3b;stroke-width:0.264583"><path
           d="m 36.301961,48.716155 h 5.214495 v 1.102775 h -1.875854 v 4.555105 H 38.181605 V 49.81893 h -1.879644 z"
           style="-inkscape-font-specification:'sans-serif Bold'"
           id="path11207" /><path
           d="m 46.207987,48.894267 v 1.197515 q -0.466122,-0.208428 -0.909505,-0.314537 -0.443384,-0.106109 -0.837503,-0.106109 -0.522965,0 -0.773079,0.144005 -0.250114,0.144005 -0.250114,0.447173 0,0.227376 0.166743,0.356223 0.170532,0.125057 0.613915,0.216007 l 0.621496,0.125057 q 0.943611,0.189481 1.34152,0.57602 0.397908,0.38654 0.397908,1.098985 0,0.936033 -0.557072,1.394575 -0.553282,0.454752 -1.693953,0.454752 -0.538124,0 -1.080037,-0.102319 -0.541914,-0.102319 -1.083827,-0.303168 v -1.231622 q 0.541913,0.28801 1.045931,0.435805 0.507807,0.144005 0.977718,0.144005 0.47749,0 0.731393,-0.159164 0.253904,-0.159163 0.253904,-0.454752 0,-0.265272 -0.174322,-0.409277 -0.170532,-0.144005 -0.685918,-0.257694 l -0.564651,-0.125056 q -0.848872,-0.181901 -1.242991,-0.57981 -0.390329,-0.397908 -0.390329,-1.072458 0,-0.845082 0.545703,-1.299834 0.545703,-0.454753 1.568896,-0.454753 0.466122,0 0.95877,0.072 0.492649,0.06821 1.019404,0.208428 z"
           style="-inkscape-font-specification:'sans-serif Bold'"
           id="path11209" /><path
           d="m 47.860254,48.716155 h 1.856906 l 1.288465,3.027894 1.296045,-3.027894 h 1.853117 v 5.65788 h -1.379416 v -4.138248 l -1.303624,3.050631 h -0.924664 l -1.303624,-3.050631 v 4.138248 h -1.383205 z"
           style="-inkscape-font-specification:'sans-serif Bold'"
           id="path11211" /></g><g
         aria-label="SAINT-MAUR"
         transform="translate(0.17624783,2.4243766)"
         id="text18969-7-6-0"
         style="font-size:6.63844px;letter-spacing:0.280458px;fill:#ffffff;stroke-width:0.265"><path
           d="m 29.073375,55.346554 -0.677887,0.76788 q -0.180904,-0.397511 -0.405148,-0.716541 -0.224244,-0.31903 -0.476964,-0.542132 -0.33534,-0.29604 -0.577238,-0.345284 -0.241898,-0.04924 -0.413515,0.145156 -0.128713,0.1458 -0.09473,0.32281 0.03856,0.176724 0.271383,0.486034 l 0.327728,0.432005 q 0.497809,0.655658 0.534147,1.128766 0.03634,0.473107 -0.366962,0.929947 -0.529868,0.60021 -1.146649,0.578894 -0.612205,-0.0216 -1.343635,-0.667311 -0.34506,-0.30462 -0.634629,-0.676996 -0.28957,-0.372375 -0.523363,-0.807931 l 0.697194,-0.78975 q 0.184454,0.491446 0.423981,0.871529 0.244102,0.379799 0.545422,0.645805 0.30618,0.270297 0.559088,0.311967 0.252909,0.04167 0.420236,-0.147871 0.150165,-0.1701 0.119903,-0.36112 -0.02783,-0.188874 -0.293955,-0.553524 l -0.291278,-0.399826 q -0.44135,-0.597168 -0.468822,-1.07542 -0.02504,-0.476107 0.356805,-0.908647 0.478383,-0.54189 1.085728,-0.52458 0.607346,0.01731 1.263446,0.596519 0.29889,0.263861 0.574031,0.588909 0.277286,0.322618 0.535683,0.710712 z"
           style="-inkscape-font-specification:'sans-serif Bold'"
           id="path11153" /><path
           d="m 30.23935,60.792556 -1.631823,-1.069989 -0.740964,0.568449 -1.049028,-0.68785 4.152644,-3.064131 1.244197,0.815823 -1.154645,5.029925 -1.049029,-0.68785 z m -0.879261,-1.650215 1.108663,0.726953 0.502794,-1.972725 z"
           style="-inkscape-font-specification:'sans-serif Bold'"
           id="path11155" /><path
           d="m 34.060494,58.408211 1.119011,0.552441 -2.142322,4.339438 -1.119011,-0.552441 z"
           style="-inkscape-font-specification:'sans-serif Bold'"
           id="path11157" /><path
           d="m 35.901105,59.379931 1.323899,0.4359 0.633756,3.703175 1.03805,-3.152725 1.123774,0.370008 -1.513485,4.596698 -1.323898,-0.4359 -0.633757,-3.703175 -1.03805,3.152724 -1.123774,-0.370008 z"
           style="-inkscape-font-specification:'sans-serif Bold'"
           id="path11159" /><path
           d="m 40.130029,60.733359 4.411799,0.655313 -0.138588,0.933019 -1.587093,-0.235742 -0.572447,3.853911 -1.234406,-0.183354 0.572447,-3.853911 -1.590299,-0.236218 z"
           style="-inkscape-font-specification:'sans-serif Bold'"
           id="path11161" /><path
           d="m 43.590824,63.662296 2.035259,0.03807 -0.01764,0.94309 -2.03526,-0.03807 z"
           style="-inkscape-font-specification:'sans-serif Bold'"
           id="path11163" /><path
           d="m 46.015981,61.379436 1.564568,-0.27353 1.53164,2.361408 0.645984,-2.742117 1.561375,-0.272972 0.833429,4.767144 -1.162251,0.203194 -0.609581,-3.486753 -0.64902,2.762392 -0.779091,0.136207 -1.547762,-2.378333 0.609582,3.486752 -1.165444,0.203752 z"
           style="-inkscape-font-specification:'sans-serif Bold'"
           id="path11165" /><path
           d="m 55.934799,62.724382 -1.794734,0.765932 0.06285,0.931779 -1.153758,0.492384 -0.250908,-5.154648 1.36841,-0.58399 3.548211,3.747472 -1.153758,0.492384 z m -1.860961,-0.182027 1.219346,-0.520375 -1.363935,-1.511332 z"
           style="-inkscape-font-specification:'sans-serif Bold'"
           id="path11167" /><path
           d="m 55.617266,58.504525 1.034285,-0.698306 1.623335,2.404376 q 0.33555,0.496994 0.64184,0.603083 0.307163,0.10159 0.675207,-0.146899 0.37073,-0.250302 0.388629,-0.571359 0.01877,-0.325557 -0.316779,-0.822551 l -1.623335,-2.404376 1.034284,-0.698306 1.623336,2.404376 q 0.574969,0.851606 0.428959,1.556398 -0.14601,0.704792 -1.021794,1.296085 -0.873097,0.589479 -1.58138,0.46147 -0.708282,-0.128009 -1.283251,-0.979615 z"
           style="-inkscape-font-specification:'sans-serif Bold'"
           id="path11169" /><path
           d="m 62.355562,56.04017 q 0.283314,-0.271227 0.304199,-0.493152 0.02323,-0.224166 -0.207653,-0.465334 -0.228638,-0.238826 -0.451362,-0.223047 -0.220383,0.01354 -0.503696,0.284764 l -0.379312,0.363131 0.858512,0.896769 z m 0.216939,0.985952 1.266474,1.32291 -0.901452,0.862995 -3.346629,-3.49576 1.376763,-1.318029 q 0.690723,-0.661256 1.233413,-0.736546 0.545031,-0.07753 1.024721,0.423535 0.331749,0.346532 0.376113,0.73036 0.04671,0.381586 -0.189592,0.809733 0.225321,-0.134937 0.513949,-0.124061 0.288728,0.0063 0.727739,0.164879 l 1.439776,0.524285 -0.959988,0.919034 -1.257755,-0.460711 q -0.379832,-0.138955 -0.605197,-0.107186 -0.223024,0.02953 -0.443118,0.240233 z"
           style="-inkscape-font-specification:'sans-serif Bold'"
           id="path11171" /></g><g
         aria-label="  TRIATHLON"
         transform="translate(-0.03290397,3.2732995)"
         id="text18965-9-7-8"
         style="font-size:7.20692px;fill:#ffffff;stroke-width:0.265001"><path
           d="m 21.437647,22.787703 3.224091,-3.612706 0.764025,0.681839 -1.15983,1.299629 3.155867,2.816394 -0.90209,1.010822 -3.155867,-2.816394 -1.162172,1.302255 z"
           style="-inkscape-font-specification:'sans-serif Bold'"
           id="path11116" /><path
           d="m 28.883574,18.706187 q 0.339401,-0.257122 0.389636,-0.493845 0.05304,-0.238847 -0.165833,-0.527759 -0.216748,-0.286107 -0.458911,-0.296902 -0.239357,-0.01292 -0.578759,0.244202 l -0.454405,0.344247 0.813866,1.074304 z m 0.110838,1.090369 1.200612,1.584808 -1.079913,0.818116 -3.172591,-4.187821 1.649323,-1.249487 q 0.827466,-0.626868 1.42212,-0.640298 0.597458,-0.01555 1.052204,0.584709 0.314496,0.415136 0.314411,0.834607 0.0027,0.417345 -0.305572,0.849566 0.259843,-0.117384 0.569749,-0.06961 0.310587,0.04284 0.764227,0.268682 l 1.487229,0.745187 -1.150038,0.871241 -1.298871,-0.653898 q -0.392271,-0.197283 -0.639278,-0.191164 -0.244203,0.004 -0.50787,0.203743 z"
           style="-inkscape-font-specification:'sans-serif Bold'"
           id="path11118" /><path
           d="m 31.23296,14.375732 1.200747,-0.627482 2.433328,4.656404 -1.200748,0.627482 z"
           style="-inkscape-font-specification:'sans-serif Bold'"
           id="path11120" /><path
           d="m 38.785615,15.89285 -2.012809,0.660597 -0.01916,1.013689 -1.293949,0.42467 0.210651,-5.598729 1.534683,-0.503678 3.487302,4.385073 -1.293949,0.42467 z m -1.995792,-0.370907 1.367507,-0.448811 -1.3339,-1.762204 z"
           style="-inkscape-font-specification:'sans-serif Bold'"
           id="path11122" /><path
           d="m 39.716383,11.208321 4.817213,-0.490785 0.103792,1.018756 -1.732936,0.176554 0.428724,4.20806 -1.34784,0.13732 -0.428723,-4.20806 -1.736438,0.176911 z"
           style="-inkscape-font-specification:'sans-serif Bold'"
           id="path11124" /><path
           d="m 46.490107,10.759939 1.342615,0.181415 -0.268117,1.984281 1.980793,0.267647 0.268118,-1.984282 1.342616,0.181416 -0.703515,5.206558 -1.342615,-0.181415 0.298275,-2.207469 -1.980794,-0.267647 -0.298275,2.207469 -1.342616,-0.181415 z"
           style="-inkscape-font-specification:'sans-serif Bold'"
           id="path11126" /><path
           d="m 53.548704,12.084699 1.270678,0.470006 -1.467394,3.967155 2.231112,0.825257 -0.355251,0.960435 -3.50179,-1.295263 z"
           style="-inkscape-font-specification:'sans-serif Bold'"
           id="path11128" /><path
           d="m 60.179296,16.207903 q -0.519751,-0.336817 -1.054991,-0.138542 -0.53524,0.198275 -0.986882,0.895214 -0.449728,0.693987 -0.412059,1.263527 0.03767,0.56954 0.55742,0.906357 0.522704,0.338732 1.057944,0.140457 0.53524,-0.198275 0.984968,-0.892262 0.451642,-0.69694 0.413973,-1.26648 -0.03767,-0.569539 -0.560373,-0.908271 z m 0.533933,-0.823924 q 1.063128,0.688945 1.271338,1.687693 0.20821,0.998748 -0.486477,2.070735 -0.692772,1.069035 -1.689441,1.286978 -0.996669,0.217944 -2.059798,-0.471001 -1.060175,-0.687032 -1.271338,-1.687693 -0.20821,-0.998748 0.484563,-2.067783 0.694686,-1.071987 1.691355,-1.289931 0.999623,-0.21603 2.059798,0.471002 z"
           style="-inkscape-font-specification:'sans-serif Bold'"
           id="path11130" /><path
           d="m 64.73382,18.52197 1.017323,1.120153 -1.382862,3.837167 2.667527,-2.422648 0.863542,0.950828 -3.889276,3.532239 -1.017322,-1.120153 1.382861,-3.837167 -2.667527,2.422648 -0.863542,-0.950827 z"
           style="-inkscape-font-specification:'sans-serif Bold'"
           id="path11132" /></g></g></g></svg>
